<mxfile host="app.diagrams.net" modified="2022-12-18T07:58:57.444Z" agent="5.0 (Windows NT 10.0; Win64; x64) AppleWebKit/537.36 (KHTML, like Gecko) Chrome/108.0.0.0 Safari/537.36" version="20.7.3" etag="3oEnt7TteRNb4XDLNhKx" type="github">
  <diagram id="U8c8nPEz_sRPb-34h-Bh" name="第 1 页">
    <mxGraphModel dx="3194" dy="1157" grid="1" gridSize="10" guides="1" tooltips="1" connect="1" arrows="1" fold="1" page="1" pageScale="1" pageWidth="827" pageHeight="1169" background="#ffffff" math="1" shadow="0">
      <root>
        <mxCell id="0" />
        <mxCell id="1" parent="0" />
        <mxCell id="DqFi7Z2pWhbsq-brFR4g-54" value="" style="group;" vertex="1" connectable="0" parent="1">
          <mxGeometry x="40" y="10" width="645" height="350" as="geometry" />
        </mxCell>
        <mxCell id="DqFi7Z2pWhbsq-brFR4g-1" value="" style="shape=image;verticalLabelPosition=bottom;labelBackgroundColor=default;verticalAlign=top;aspect=fixed;imageAspect=0;image=data:image/png,iVBORw0KGgoAAAANSUhEUgAAARIAAAFrCAYAAAAdGgYqAAAAAXNSR0IArs4c6QAAAARnQU1BAACxjwv8YQUAAAAJcEhZcwAAFxEAABcRAcom8z8AAN1TSURBVHhe7H0FvFzVuf3x8bmuyY0TEkIgboTgUtw9JcSFhASnBUpxh8i9d+RqBErd3aj3ldLXliqV93+lRo1SefX1X2ufmZubMKUkufFJfut35+w5Z599zuxv7fV92yz+Qxn7F6KOg7jnw/YD2J4F27XhuDF+V2O+r7EtOPEaplWhkse26yKwauFEAsQC5eH25eWYzwSv6Q9b1xm48JwE7xdD4EV4P8J14Ps2XJ/f+Uy3+dlz4UaisCMpWF7CnBc4NqLMI2B+rhPwPk7ffcs44FAysYx9GC4RI4k4kTicYKtxHjrhFFxy+lkYFvdgBzHYThQxpnsiCkcEkIJjuzj6uBNw1jkXYtLooTy2ea3APPqTicnTgW0HJJA07+mbNJGLL+LgOQ7JwyGRFO+/FWF+Kmec50VIfK5LkuG9X3luGQcISiaWsQ8j8DxEIgl4scrwmErjTbffjt//39+Bf76MWSOrwnNpxC5JJGJFYEV0bQVmTT0Wf8NfoH+dD97Yl6dDiCTCY5GTR0QJEUV4POXICRjZUG/IKe5QgbAcdpBE86ixmDRxAqZPnYTpM6Zj6vQZmDVrJpqrK40iieg8EllZkRzQKJlYxj4MqQiPBux4URx2xHh86Zmv4Ne//i0++aVv4OVfPI9ZwyrMeZ45P0GSICE4PI6PxGc++QV89btfw/Mv/QZb7r3akIdIROeGRCI1IfUhAkkSFsaRJN7x/g8Y8nnkputITCQHEpTj8jwSxENb3gn865/4/Ys/xm9//XP87re/wW9/9QucdtxsqhcSHV0h2ygSkdO2z1LGAYOSiWXsw7DlcigmYvs4ctpU3PvA/aipqcPly27F3//4S0wfEiqVqBSATTJwQgO+bPVdePl3v8LxZ16I/3rx53jb/QuN+yESEYwqofshl8iy4vxbgasWrcav/vAyvvvCz/GnP/4Ra9csQ5LnxW1+bynu4eORd30EX3vms2ihAmmqqUJDbTXqq6tQGfGRIIEFcoE8KZKya3MAo2RiGfs8aMRuYpu0BWvuwj/++AvMKBBJgorBTVSbz6OGzcDPfv8ybrtpCfz68fjW73+LtzxwpSGPIpmY4KrtwPPjJKAIoolmrG3vwfylSzH48On4xS9+iZ43XG2IxKNicWwSDs+79+0fwec/8xGjVJSf7qe/cmsExVNCMiu7NgcwSiaWsQ9DRurI/aC7YLl0RWSoTJu/5m6jSKYViMSnYrF8uScBNve8Hz/+5pcQ9SykRs3Gj//4Ep56dPE2eRZjJHJBFBx1vRSPQ+NPD5+EX/z2JbRdv9SQg2MCt3KBPDz4jk/iM09/3JzXHwmWK05FYvJ1FfAtE8kBjJKJZezDCBUEjdJRjIJpBSK56tp78Lc//gpThoZE4rgikQiOOnEu/v7yL3Hl8dNMevrQ6fjhn/+AnodXmuP+MN24hOf5cKgiHNNt66L+sBPwwu9eRu7WxfB1rp2ArxiJZePxdz6Nv//j73jPWzbj3e94Bx579DEqoKFG5USLROKI8Aq9Q2UciCiZWMY+jGJMw1J3qru1lZ937b34259+hUkFRWLR9aioGYfPfPfn+ED3/WZMiUtjrjl8Kn74f39A5yM3wTYqoaBqCIcGb+sv4TFvh66OVEft2JPw05f/jLY3Lg6JwYvC43dRkszJF6/BuvVt6OnIobNrE37+q9/il7/4Gc553YmmHMZtIjmVieSARsnEMvZpuGYsR0IkENRTeUg1UJFcdyf+7w8vYvbIcGCaMGXWmfgHgN//7kX8+P/9GD/+3xfwP794EX/+15/xxz/8D378g//GrKkTzLlR10KErlLAfH0Sisd7hAPWoqgfMwu/+MPvsf6Wa0LXyneQ8mxUmMDsVjIThoyagh/8+H/x/Wc/g+ZYYBSMrTKWe20OZJRMLGNfhhulsXtIy7WIDO5Lv3L1G/F/f/o1JjaG3baKn1TVDsexJ5yP1515Ls44nzjrLCxefA3+8peX8L739eDM0042PS0RLySSgK6ISMR36d7Q8D1PvUNRDBo3E794+bdYd/sbjSLxeG6FiMRLw4n7CAISUCQBK9HEe0eR696Ef778E0wbTqLj+UFM8ZZyr80BjJKJZezLsH1ESCRJ10OkehRaWoZj0KBm3Hj3I/jnX1/CGdPHYTCPa2oUEI3zmm0NuK5uONXIS3j00Vv70gISg0sCEdRz4/t0Xei+hAPTbDSOnIjf/fll3H/jGnO+R8KJORp6r3MUj1E+cl3C4O5HP/U0fveT72FETdK4Nm5AQjI9N1vLUcYBhZKJZezLoFLQIC8Z6ISjTsPPXvw1fv/73+HFP/wZf/3ry/jTb/+fOX7g7htNjEMD0mwShEPVIWM/dPQk/OHll7F23d3MS700NHSqF/21zYjVCP8GTIshiKZMD86QQ6fi1y/9Gg/ediPViIuoTxKhCzRj8hwsWrYEiXgMns9rIlVYdfMdZvDabdevQpR5RpSvcW3KiuQARsnEMvZlkEgiHt0JGnIs3YhDx47D4ePG4dDDJmLM6DGYMOZQjD/sMAxrqEOM6sW3fJKBjFnKIUDg1+CQUaNRV19lemikQEQgxtAdTQaUyvDNyNmuLU/h5z//BV548beGHP7vj7/h8c/xhc98DNVVKRx7zMl4/kc/wosv/hL/+5Of4IVfvoif/vLXuO32N9E1kmqhy6NJhV4Q3qPU85RxIKBkYhn7NKge+NczrsS/dxfUTaxeFZ+Q2jBdxeb8QgzFQHnIwJmuYGiRSEhA+jvtqKNx5tnn4PTTzsOJJ5yAk089CWedcQZOPGYOUikNo/fQ1DQI5557Ds4660ycccaZOGTM4YW8wzKYXh5zn3KvzQGMkoll7AcIDbR/jwmVRYFkTICT8GnoZuauiERxDNNzkjbujow8vF5pBYhAqFpsPwI3COMfpWDuLZfFD+f1bA9P3b1l8jiYUDKxjH0eoZFuMyLV/BUxyE3hscjDBEMV6OTnfkTiMt2M7zDQNSHMXBt1+/oe3RHC5zGvi+t8dTdHSE4kGc3+9QLex08hSuLxeOwHdJtcBxHC1fgW3UujX+U6FcpYxgGLkoll7Fb0b6W3b7H/cwseGiXPM4HUrceGFJgWGi/T9NlStytdGQ2lF5Eo9kEi8ag+NL7DjAkp5CFoQJrnMV9DBMyTn0VCCYsKhd9bCtiSbMzYEH3nxZDwogi0PooWUOJ9pYSU578jkuK9/t2z9j+3jP0GJRPL2GHIaIWtxlE0GEGGFcYLNAs2ERo1YRvXI1woyEzEMwqimGdpKB9jyDqm4VseoZXPBJOnbVyagARi27oX86WRu04cMasKzfZQHOqPwCFeC4bxb8KKh4qF1zu+Yi8Or42wzEx3WV5+V2HV4PBgEsZFZuLQyGQ0+PVG8eh8LRVg+Xz2wDHdwnGWycwQJgKWxRCVysjvApJLJcksLpKJhnnrmUaNmYHpR4xDNckroqAvScoO0jh84nGYM+dEHDdnJk44dgaOOfoYzD7qWEyfPh2jRo2CR+XUFyjmtcqr+M77v7MydjtKJpaxw1AlDityf7ySSDSuoyJs2Wn0Dg1eQVNXBmWLZBTA3DaP7aG8RCQiINPia3yGiEl5mnxEBhpRKgKhgWtRIw04I7GM8afj9PhCXFl1Jy6N34ULKt+MmbG5aHTHGaIxY0lokDJ4LbPokFQarSZcmLgUD9Y8gvXxDXik4iGsblyJ0c4o3kNlJty4WXZRa5QENG4NWPNIMm6EZeRfA7lFJCYRSdIEdEk2tXHc8aa78ce/Af/73BcxjOV0zHPx2ngtet/5KfzqV7/Br1/8Af9+By/+8pd44YVfmB6kj374feE7MSTC5zQKjMdl7A2UTCxjgPDK1lGGV1AABUUiwwnjGSQF833/80tA5xIiISmHOK+LMQ+5FOZexqjCnhopBq3rKhIbZA3HRdU34vWxHC633okF9idwlfN2LIh349TYdai3xlEpaM1V5iHyYflq7Aos8xahPdqKbrcbW6wnsNHajI5kN94cvwOXxS/CidGjMcYZgha3geqGbpRWQwukOGjgUkk+iaGomnyfZaEKY/kmHn0UvviVL+K3v/gNfvj9F/D//utpDON7MTEbQz5RxNNDkEpUI52MI5GmoopV4rTTLsK//v5n3H7TavM+zLszCAnoFe+rjD2Bkoll7DJYqQ0Kx32VXO4LyYOfQ4KhsQlG4uszDbAvj3+DAgnpfKmOOK+RG6H1QEIiUVwiSqIJiAiSdj1GWtNwQfwmrIpswRr3w1jjfA7LrY8RT2KV1UOyeBQT7BOpWkgkUeaR0j0cjLIPx9pgA7qdjWhzOtBrvwUfcD+Gz1qfxrOpj+NDqQ1oiy7Fm2MX4fqK83BObAYmREcaAtIYljTLWMv30MRyaf1WjSdxNGuZ7+PMeXPxyGMPorG2GZm29+A3X/sChprn0r3D+2vN2K3PLsVRiyfe/hH86Rc/wNiWOkOQgWI1+t6QSQF915Sxh1AysYxdgghElTtUBuH4DBqEmZIfnmNWV6cbocWYi+6J/RqHkKsXxbTYio/oOmNwPDYGpHuLRGpR5xyJIxLn4ITUGlzuteGO+GfxmPctbAi+hYe8z+ENzntxs/dBvMn5KG4L3oXj/IUsVwOsBPMhXBLRUe7x6Aq24AOJD+FDle/DR5134zv2l/G/1n/jB97TeDrdgbbIEuTcBVQsi9Eem4d1lZdjTWQWFgeHY1ViIpZHx2FV+gjMDiro1riIuSxfROpL5Q2xrus9+Pm3n0G9IVQqtMJIW8Vf5GrZmvNDkjtk+rn48z+ALevv4TNaSFE9RaR2lE/xHRTRL/8ydjtKJpaxg9jWfWHL67Ll9aJwgzjdC8VFZDgeBg8bjmFNNUjxnKRHRRGJwAnSPKeSlT9sWVtaBmHUqJEYOXIEKiu3Hadh3BUSSR+ZyG2IkIwiJCESVsRKo5puxhHRU3FG4o24onotXh9kcbX1DtxvPYOs9SO0Wd9Fm/d13Od+Gbfa3yV+gJv8r+NsL4uW6Dl0QeqoBqIY7o/GsuRSfD3yefzA/Sq+HnwWzwVfxg+cb+JH1jfxXe/z+HSyB5ngGmywFqPbWoInrSvxQesKfDF6FT6buBRvd05Ch3s02mJH49bKCTjKq0U1VYanCYdUJ8XneuiJ9+GnP/gKqvVMJs02asN0UTsO35FWekvhnvan8Ne//RknTRljiERLOWoE7Vb3ph9MPmXsIZRMLGMHISLpTyZSF14kQQMIR5HGK5vwhrsfxh///Ge8dePjZiX2NA3EqIkIycKtQbqiCq1tj+Kll35j5sq8/PLL+NSnP4ZEUkTEfAsGIgOSolFr7ZGgIlYcabuSrX0NDrUm4ryaRbg88SYqgi5c5bRisbMe19g5vMl6F9ZZX8V66wd4zP4J7rL/Bzfw83Xe/2Ch900cZ70VR8YfwLDofNRZx+CK5HXoTG/G81QfP+V5z1nP4Wv2d/Ad/0f4pvN1fMf9LD7pbsBbreuxzlmFtVQkb7Hm4YvWfHyPf7/jXorP++dgk3001rlTsSE+BatqJmOQox4hqSm5XuH7uvct78P/kkiqFJvhsdlPh38dxUw8KbUkmofPwK//8H94/3ufMPEguXIagq+eolcQCb8rY4+iZGIZO4htiURSmy4H5bhDTD/qBDzzjW/j13/8K/7wpz/i/U8+hjTPS/M8retheUmkqkbi45/8NH7z25/jkksvMmpk3OFjsXLVctTUbt1eQlCPTYrXNtG4pvuH4OL4HCyOnYFL3DOwInoDlvj3Y4XfiZXWJiy3slhkP4wl9oM8bsMbrffgvuhXcWf0O3hD5DncFP1vrEh8GWdFPoTJVi8m8Zxjee5850G6LIqJ5PB26/142n8WX/eex3Pu8/he7Nv4RurT+GTQQRJ5A3qslXjUX461dI3eQkXyjLOIRDIX33UvwX9Fz8NmezbW2pORpat1c9UUNEut0e1T/EOEqGe7j0TywvNfQX1BkSi2E64Cx+NAai6JlTfcD+CfuOS8Y8w5EX6n3i7tr2OWcSwHW/cmSiaWsYMQiRRbVxGJXBvb00rsUdz/eCsea8tj5NhZ+OLXvoyPv2uDcW0ULzDjL6wAC1fLSICzzjq2L89tUGxpiYAuUJUVwxkV03Fv3Tx0xpbi7e6N+Egqiy2Jt+NW621YRVxHIrnazpMU1uFKZy3muxks9bqwONKJy+OPYmG8Gyu8T+E89z2Y5fRggr0BR1sPY55zH/KRx/Ch6C34sL0cW6wH8aS9GR93P41Pxb+ArmQvVnnzscA7FbclL8RjqXloCxajx1mAd9GtedZbhG/Zl+Pb3kX4nHsanrBmIGtP4fcTcUvFZDRqbApJQkP3E4Xne4SuzS+/8xUMFnHw2KPKktoyREKSiFcegh/8z8/w/W98BFUxvmuShpmxTEWiHQfNspMiEl67vTosY4+gZGIZuwzXuDdm+rxRKEzzqvDlb3wDH31np5HtZgc804om8PEvfBPfe+5L/a4vgIbkEx5baEcD2Ug8vu3izOo5eKTqSnQ4V6HTWo4PBQ/hc1YnvuC+H13+h7HGegrXWk9ihdWFhc4GzKXLclnVHZgTnYvh9kxUWC0YRvflBCqWaXRpJpN0Trbux2pvNTr9xVQb8/B8cAH+xz4Vz9pLqDzuIqFk0J5Yi+OTp1AVJZG0UhgRbcFp6Ym4ofp03B47DQ8EJ+Op1Pn4ROpCfNI/g8RyNDqsyWhzp6A9mICr02PQSJfGtn0+09YxM+29W/DLb30DDYVjrcxmemwK68Je/PqlhmhXL7ks/F6BZv41rqEWljaB7cJ7LmNvoGRiGbsBTrIRX37uO/jY23vMsW0CsA4qGkbgB7/8Ld7e9RjOPW4WWjdswAbipluuRSqtcSYaJZpgC15pukSr2KJfW3Euep0r8TZrKbLuDXhLxTp8we/B10kg7/ffiTc6XXRnOrDAX4fXx+7GGfHFmBA5jiqokSQQGrBnVWOUuxyHB+2Y4bRjuXMbup3L8QHreDwTPRM/8M/E/1pz8EPrdKqRVdgcv58u1GWotlUOPpNGzVI5pGjwtW4aTU4lRjDtZLsRb47NRFdwLLqtacQUfp6Oxyqm4LR4jemqdtwo/KACiXQtYrEYNj61CS9+59sYkUohzeOI5vr4UaPq3FgaX37ma/jNr1/E4PpaU/Yy9jmUTCxjN8BODcUXnnsen3pbzsQ5wmUAAlSNmILnfvIL/OHlF/DVT23BBz7wPnzow0+bFvgLX/g4hjVX8XwbUbOPjI0GO4Yb2PpvcubhSWsZMnRrnqh8DJ+J5PEVtwMfrdqIGzVqteImnJJcgkn+aWi2DqOCqGc+8bDL2RCBVjgbjXr/AhztLcUdwVV4l3MyPmrNxNPBGfiv1KX4auR1+HpkGp6JnI87YhdjvHc43RG3MCxeK7UFJvBpaaawAst05SpIkNOovpYnDse9yWl4PDkdd0fH4fJoI1roloULTls484JL8Ytf/wY/fvGXeOnvfwH+9Xf85sWf41cvvojXz53bd95JZ5xr3sX9991rjsPpBGXsYyiZWMbuQHoUPvutH+IzT62nsYU9LxoSXz1qDp5/6c/4zPu3YHi1Jtkp3cHlc68zBnTjNZcbnz9KEtHM3Gq6FAvSJyEfvYpEshQ91rXYYt+K91l34CPRe7C+5hYSw/EY7I2nehjO+1QhQkVjYg7KWySi0avFUadWDUaTUG7zp+Aj3hH4FEnnvdZ0vC84DR+MHIVPx5rwcX8sTrXqeG6E5XARkzEzn2IXrWuHe+GoJ0ZKK0rCqGNZx0SSGBdN0Y1yjdtiFqyOshwRH/WDh+L4E0/F0SefjOnHHY1Zs2fgpOOPwcnHH4fBzYOg3flsonHwcBx19LGorqxCgtd5BbemjH0KJRPL2B2oHE0i+RE+99Z1qOFxwiiSOCKNU/HVn/8en3gqF7buxtevxaDBc/Cvf/0LmzvDllhdxr66lXnNjNQE3Fl9ObqcRXjCWolN1gqSydVYl1yMU+KzeE7SGLSZLyMVUAjUhiNG+0GjWF0X9SSIJUENtvh1eBeVy1tILG+zJuOt1hBs5H0fjiYxQUFNnqvuWJGHVJWUicgtQeKTUtEyBGY4vAhK0D0VMPXpzjDd9FKZcS/Mq984klKwtciSCcxuHainhak1Krj/eWXsEyiZWMYuQsZVhFOQ6HbVaHzu2z/Ep97aahSJ6bFwFEAdgg8+80N855lPhGlmyHcFDh17ulEk9715lblesQWXBmvTxamhwZ+enIo3VVyKxxOLsT69DPenX4/LYrNRq/kyuqfp8SjAGHwI9XgomOkKxtA1K9jHcb6HNyfjaIvWo8M+DE9ZE6lMRlL51OD8ZIBa3j/wqCaCmBnmrhm+crksO+zONQau7luNBdFfcy8qFiK8T3+ox0VD/EVAIUka0iHCHheRqd7D1r/F3phyj8w+iZKJZQwARCCCyMSkRRvwxee+iw8/1WECqMYlMIYYwfKb7yVl/B3L5p9lzq2sGo53vedp/O1vf8C0I0eFAVdDTI5xI5JWlCoigbHuYJyYnInTq47BRHcEmpkmA9fw+6JhGoM29wqh3iL1AkWtgAZMVaDgqUNy4ncnBy6uqxqLuypPw3r/LPTYJ2JNMAaDSG5yxaJSB36K6iJqCMCM9dBK9UaJ8F4ikcJyBno+naOubhFFH5Hxs3kf/CwFVk1o8y6TrvLqbxn7G0omljEAKCqRW265Gc8//zy+9v0fGYWBv7+M57//fXzz2f/GnPHjzDlBog6b3vY2/Ouf/4fvf/fb+OnPfo+f/fxnmDv3YmOQMRKImbLv8i+RJJlEqQoiVCc+SUVjMrQPTUTpPD+cwEcS264lF6RGtHdwQFKIiRioSBQslZuiOMaRzuE4NbkMl8ZuwwXWAoyhMtHSjDJ6LYhkOVI8vlEbRnXR1dKMXkMEBcWhz+HoUw11l/qQQtLK97Ypn3G15O7wbxWPDZGIcM07KxCvziugeBx+t/X7MvYZlEwsYxchEvF97Z/rYNq0aVi8eDGuXLjQjFqde9mlmL9gBeZfuQiH19WazbbNrOBIEmefdy6WLFiEhQsXY1CLNptSkDXs/vWtatjM02arr+UBnIBGx5Y/dFeYh1kFLYR6ZsLuZcUXmKbvt4HOscPel4DfxwgSQNyqRNo6lX/fxL9ZpOz74LhnkBDqEVFMhUpHyzQakozy3kwLWPZwpGqYr8mbx1p02uzUJ7WiZRlJgCIWuWhmrlCMoIqRgtJIX03U0zllItkvUTKxjAHANm7Nv4GZL6LPGnilAVj9vjOgcSu+4El12Ilw8JXiDzLEAkKVsfV8QyZUMH1LFCi9j0C2ha3z5ZIIPHat4Yh7S5me43VPMK9O3u8G3rvZTBbUpuJaNElzYAyR8DqVzaOqcWIkDqYrGGzZMbha15Vum+0leK3cPH7He8QcqheNRFUsiGlSLibILHISis9Sxv6EkollHFQokp3clNGIOGtIKN083kTDzpEMHyWhDDVGLzdK65yEhBXCtlIkiArYUaoNn26XlFNQDS9KV8tJIJZqQirwkJCKEhlRofhOjISj9WMLikPEZoKqZSLZT1EysYyDCtsTyep+RJKlkT9CwhhtjF0xEsVXjOH3EUkSAYlEgdYo3aS4lpKUKumXv4mZ8Bq5YBGqEbMUJBVYn+tSJpL9HSUTyzio8CpE4mbo5jzGv9N5rGCpJtvRXSoSiZSJArFeEm7URcTM1LUwa/bxeM9734nPPv0ZfOjjn8KxJ55oZuoqJhOh++LZctUKrpzy6iOSV3cFy9hnUTKxjIMKr0YkbXD9dbDdM3mcomsjVUKDV+ynj0i0UFEUXhCuN3vRhZfjj3/8E57+xMdwz1134yOf/Az++k/gujVLea2FmOtQnURILOH5RSJRD1OZSPZblEws46DCqxCJ0wrHXQfXvYrfNZqgqAbFmZ6YPiKhStHevlQY6eom/PiFn+KZL3yWhFHIl6Tx8We+h1+9+COMrE+Fbo7p6ZGLxHP6iER5lbGfomRiGQcVXo1I1pNI1tINuZ7HI4xroq5dsw6tiEQkwGu1LogI5cQzLzVDZVYvmmfS1Uujv5esvFMDaHDW0ZPCdNM1LSJRXiGJ9AVey9gfUTKxjIMKr0IkLonEWUeX5h5+d7hxTVxj/EGBSEIiKCqTRWvuJF38C6fOnhh266pbmX+PPvcaQzDXXCYXSb0/Gt8iIgnjLSIQjbrt68YuY39DycQyDiq8GpGso9pYR1Kge2NNNQrD7AFsRtnyGikTEYk+kxyue3M7/oi/YebYIWbgmW/SLUw6ZZUhkjtXXGCONVjNbAhWJpIDBSUTyzio8GpEsoGGnqHhb6CRTzXjQMwG4RpLIgIp9OA4ZjmCGG66O4s/8//scYPN0Hez3ADznXTGDdQpwB3LzuFxoRvZ0foqzEtqhudpKH2ZSPZblEws46DCvyOSjTTydv7toTuzHrY9KRwBS0WiPW9Co+e1UhRmbxkXN97+KAnjHzhxxmFmhnOlcXkszLwgXFvl+ivPNsc+3RottxiOZuU5IiO6RmaXPZNvGfsZSiaWcVDhVRSJ00Yj7y4QydR+RBKOStV1mmPjFlyY8y4P11ZdtuBKnmMhZRSJhYuuUbD1nzhnzhRzbBSJp4WQeO8C2WjtFKNw+LmM/Q4lE8s4qPCfiKSLRNLK744KYyHbEYmg3fD0d8jYCfjFH/+Ot73trX3f2VYEH/vKt/D8976K5mRgCEZEYjsaal8kEt1bAdgykeynKJlYxkGFVyOSVhJJJ4/b+d1xhkRk7Ma1KagNuSVau1XxE+Wx4oaH8bd/AW9/Wyduu/VmfPqTn8fLL/8WF59zijlfyzD6TiR0bZSHcW1UhjKR7McomVjGQYX/RCR5Ko4sXO8sfo7zHKmKfkRiacg7XRWjVqg07Bqcce48fP6Ln8aXv/QFfPBdH8BRk48054YzfRVU1TiSMFDbh2KaybOM/QwlE8s4qPAqRGJ6bXI87oDnXcTP1TxHCxn1JxKtfVIgBUdEoG1Ktw2ayp3RuirhqnAKqoo0eI65hjB5ae6NVMnW68rYb1AysYyDCv+JSKhGrC547hVMa+Q5qZBICkHSrS6JyIN50XUJF26OwvMjhkTUDWwWiuZnkU64MHWBSIooE8n+jJKJZRxUKBKJjHx7IllPI8+YY8/RsPcWnlO5HZEo1iESiTHdgyb2KRDrB1VUGxE4nkik/yJPdH/KRHKgoWRiGQcdZMAa2zGKRFJc2IhwFSMRkVCR2AuZJiLRGrHeNq6N6X3R0gAFIjHLDWiFfKNMSCRUJlsJS+pFZLI9kRSVjT4PNHTv/ih1Thm7gJKJZRwkMK4GjVjuipYJsO2RiDrXkgg6+TlDIiAMkeRJJMt4TpM5P1zsudDrYkhg34NU0dZJgFJM/VEmkwFGycQyDhJsJRIFSJP8PIxEcg2JpOM1EInmyjCffZRIwnhM/7QyiexGlEws4yCB2a7CEImWRozycwuJZAWJJM/P2f2aSMrYoyiZWMZBAfXSCCKSKI+15WYjou4SEkmmQCRas1W9NvsbkUh1FBXIVnXySpVSxgChZGIZBwU0nkPkIeMqxDusKhLGXPhWG9PamZbbL4nEdhS4DUlkeyhI7Hl67rKLM4AomVjGQYH+RKKeF6bZCRLERWbZgJBIOvZTIglQ1TAMg1pGYHBLC4YNbsYIorm+Dr7rmqUQgkDdzaWvL2OHUTKxjIMCIhJ1w4pI2DobIomRIM4jkaxjmuIjXfslkVTVNeGzz34TL7/8B/zq17/Gyy+9iN///nf42lc+j5q0Ast8Bm1Ktt11Zew0SiaWcVCgOMJURMJjEYkGkFlnk0jWMk3xkW5CQ+RFJMt5zf5BJJW1jfjhL3+DhzfkMW7cOEw+4nBM4t9xh4xElG6N69jwA00cLLs3A4SSiWW8CszG2a+ogPTHmaaxCwZ9xrU14LdtADBEuNH3VuzZrkndb6siEUFYtpYHOBmB9TD/hj02Fv/6ghmQ1mieTUSipQRCIlE+GkhWxNbnC6Fn0rsJNxR/NYTleuU7KJLd1jwc87kYLO47t/De040t+M6LL2Hl6mu3fleASMT1SZhaxmC778rYaZRMLONVoD19PY+GpH14zbHiC5pG75nd5DQ5LTBuAo1IiyRrunyfUSkIGEJuhYxR0Krq4RaWYZ57BIYEQogYfJZPm1851gRErTeTTPJ8rgdZzjY+11pEnMv4XT3LqY2yVO7C9VImVoznsYU3kIHqmYvPGpKLjF/3eDWYFeoLRLKVPFS+EB6/C3hOhHnqr471fd/zFBZYigwegWd+8wfcsnJR+F0BZre/gPeJaPBdbJvvytgllEws41VQVCQiEsHzSACeZL4L37URJYmowtoiGOOHh8PBt1cxYWsqyMUoQoa07f12H1geQ3YyUtsYpf7a1mE01Ftp2D38bh3P66BbswG+M5ffNfMcbSQeTsYz7hCPRUS6vgiphaJi6LufcZ1eHaHbtBWGTEQQ/dH/mu2/E3hNonk4vvvy/+HLn/s0Hr7nbtx/7wM494Jw4WnBdbUPj7q8X6l+ytgplEws4z9AqkQk8mqR/9AIVFELaqRUpRd0fv/PewwqV+ieyGj7WnZrJFz7Rh5v5neac7OZ7kyezyvXZiihyXkCn03GTBLRGiMRXitozZFwuYAwzz7XQ2pBSzW+CuQ2aa6OoOvNO9E9itf6/aBjswYKYd5dkZQdxCvqcf+GNnzwQx/Gpz/6YXz1q1/D3wC89T1vR1N12uTvuGUiGUCUTCzjP0CuTVGZNDY2YtU1q/HM1/4b3/jmN/He974PUycXN4IqkInGNeivKnxJ6DuRzZ6s2FJKGs0atvqm5TdG2Uwju5rHm3jOUwa23QXbXczPwwiNglXvjp5fRCEXbSt5bENK5tlCKM1sZ6G//eAyTSheXyQfQ0CFa025+qOYZt6XCFEEErqLYQBZLhW/74e5199j1pN9/LarETN565w9+b4PaJRMLONVIGKQItHfSCSCp59+Gs8//31cs2YNrrv5NvziNy/h17/+FY6dPskYReDyXErpMFagitsPrMxm7Q5b0DmvNIDdB8Vk4lQBJISicZqWvwq2dyFcJ8fv3spybYHnZuEF8/m5hdepJScBsfx6Pofldl25dnoekaHAZzXg8xgSVUxFyuXVYesabXfhhteE8RfFXeQ6KY5D95F/E3YCUZbBBH15f0+9TTpfriTvZwLCLIcbxPn+9a4deFVj8f2fvYQvvTOPGvP8xd9Dn8vYRZRMLONVUHRr9DmVSuGKK67AoOamvu/Punieafne/2Q3K3so0y1jaDJAkUUxGOkXDIBGQjLxdc4erdgy7oQxOkMkurdxG0hqzmz4zr3w7R7+zSLqPsrnPp9GWhcSA5+hj0ikUBS4VPm1MrxI0yzsXIAM3CwnoHwFXtsf/dItn3l7IZHYrpRP0uTvk0yiJI243BaSTYSfowpuOyQWj8/B6xypRJ+/SyCFEj6jAuBGafFzzfCZ+AP9mw91P4aUvhdplYlkoFAysYxXgYhE8GlwcnH60hVwZQU/ZNwM/N9f/4rPf+gdSDNdMQPLk7GFE+NCEtE4DObBVjPKFlg9PYJvDHrPQC6ASyM1JGLuy5ZfBMnPvncYku4aJK3HkbQfofHeyvO1+DMJwximVIfyEJkk+VlEwufS2q1SBExX746eXWQqmIWQinGN/ijER/RZ52glNblArghWaseUk4ShbluVXddEiFjhb5zlSOiziJDg+zzm+JMxYXzoXgqxVBXWdz4J/P3vuPjomSwf00VYhe/L2GWUTCzjP6DY/Ssy8fk54tGgfHUnBphz5hVGkTz+5uuR4LkKQFpqXQ2RhEpGKMYVFAvQXxMAJPrfZ/dChKbFh/jZkEPaBCC1opll15LYLiEBvIG4iYSyiuWcxnNpfPpe15tr1KJXEFQTTNOz6Bn0LCKPJGE2yiL0Loqk8u8gpaAd+vRXx0bNCSqjCIREMfjkSky9tRETVzfi6GvHYtgpVEkpfmeIRcQewV33t+GFX/wO3/j6f+Erz34Z3/7ZL/GrF1/E9ZdfbrYSjcX4nH6ZSAYQJRPL2AYyllACmyCgzdZW3b6EPmvehke4kvX03Xve/THSyL9w/JQjjCHETMsryS/F4rKl1XYOFtKBh2ljK3DFaWNxwZyhuPLkETjikNrCPUODFHSuWnblJVKq5D0beb+GAvRZaKKRF9FsYBcQHiu9kWgQeH4VFUOCysgoJoMUDVbuCe9HNTCz5TycN/o+nHbIm3D24bfgsNpJiGlEqCGQrQRYSZdtcDSCFhrxUOKQqIuTh9fivLGDcOGhjbjk0AZcNroBlx9SjysOqevD5aNr+3BZAVeMrsGlh1Tj4rGNOLmlCocwv6aIi9qki1iljSEnVOC4xwZjWq+P6Z1JHJNrwanrx+DQc5rhVvD3oIvjummWrwavO+NyXL9qOZavXIbFK9dgSEOTeX9VdHccny6VR1IvPEsZu4ySiWX0QQSiwF/YesmwZTyS3j6NMexZ4HduOLjposvC+Mj6h+83xyIBW987bP1Vge0kXYWkaXUXnVaNdTdUov26OnSvrseWa5K4/+pBOOLQJKppsMN4zqxoEqfHkzibxnlO1MZ5JJ8bUik8EAlwf8THfdEQ9xMPBj4eokJ6mHiEBvWI7xo8ys8PEw/qfOJOnntPOorlvMclboBz4xEcH49jOEmkimVtIPGdOczBI7PGYuPUM5GfcRpaZ03HIzOGYP7wCMayXEcPqsXrhtThopYkrh8V4LGpKTw6JY3HJqfwONE+vQL5mVXomFGJzhkVBt0zYuieGeFfgn+7ZkXQSXQcFSBXQJ7HmaOiWH90AutnViAzvgYdR9bjzqlxLLjUx5WdFTijl6pvvYWp7T7GZyKY2uPi+PZGVIyR6rMRkLBdE6Td/rcMf7tQ9fF3VXC433dl7BJKJpbRB1U2tVz9iEQkQqltunVNz4RcBAtzjjsF//wX8LEPvR9VCXWPhq22qbCKH1CWa5CaRmQeWRvggSW1aLvGQvtiCx3zLLxloYV3L3bw0YUNePPgAG/wLTweTSEXiSJL16knYiNH8uqhoniC+QqbiY1ED9FdgD53EXmWs4PQZ6Xr70YSWk7fsTXO+RGs9yJoCwJ0RyqQtZvwkFWN9dVRvHNOBTbPSiM/cRSyE4/AxslD8M5ZSXzg1Eqsncqyz67H/XMa0XZMFXIzXLTPsNA6w0abMJ2YxuOpfDairfB3w1QX66YFBuun+fze43chMlNCdE200DnJQobnd0zmOxnv4+3jXJ5v4dHbk7jx/RHM/aCL898WYHLOwrguC+N7SGyZCgw+kS5O4CBK8lTcadvfsYzdjJKJZWwDVcqwYhrXRmlGZQRwgnAm6dHHnoj/+9s/8MXPfw7Nddr7JXRD1AIa+awuyKj+hm7K3OOHo31NsyGR7vkW3rrAwcevSeBrq1z8z9Ik3j42iVaqjy4SUCfJTCTQxXw6SVy9JK5NTNtI9BD6Pk9kSVhtVBkbBN6nlWTXzmvyvFZE0stzNpMUN/JZhC6en2O52unK5IkON4GMHcG7BiXw1eMr8NmZMXx86iC848jx+Nzsw/DDk2rw41M9fPF4Dzka/COzHNw3m5hlYS2xjmSyfnqIDUSryIQQqQiPzaAymhnFozOieGw6SWxqBK1TqEAmR0hYVCZE75EkSuadJZHkSSQbj2S5iUeYf9t9Fbj13R6u+jDf39MeLv5SFNPf5WNMh4Vj2yvQeCzfe2Aj7ocB7G1/wzJ2M0omlrENVCn7y2AqC9PFqR6YCA6bcgz+389exIc/+EEqlVdWYA22MmQSkIRosDFef+Pl05FdWY/eRRY+vNrGV94QwWdXx/Dc1R5+sjCJDx6RQpvnodurIAFUEjQ2kkAH/3YZhApD6CREFllCxCECWcf7PMr7PU5Vs4Gf25mW4fdCB1VRnm5Wm8iG56yL0MjNuT7W8fr3NsXx3JQovjfBwnPTU/jcpTPw2QvG4BunBPjJ6Ra+MsfCk+ND5dDGc2TwUg86FroKECH09kN+CstI6K/O1zndTO9hHiKMTfzbM8FBbrJHIvJISD7aWY7srBTuPc7HbXw/t76lBhc+4eKMD1hY8N0IzvpiHJN6LZzY2oCq8QnzvgM+lyHwMvYkSiaWsQ22IxK5KhrzYHlINYzAV37wgomLvPsdb8eDD9yPtscfRdu6x/HYA3fjsBHD+twhkYnDllKV/LyZVCTLW/DUEgvfe9jF8w9F8MGlNr60xMfzi+uQb/KxgRI971ahx05hk+MZFbGZ98wwH5HEWpLEuoLqyBEikyKyPG6nQWWILM8R2pgukmml/H+U5CKSadV5VDBZJ4JuJ4FNtoeP1Vbgm1Pr8ZkpDj59TgIfuW0Suq+ow1tO8fCZ89J4y0wS3LQEembQ/ZmUwNsn8ropPrrosnROctE5kWpnokuScEkMVFAFbCJpCL0iGZGNyGeqg95ZPrpnB8jOcLCB7tOjxzTgjqMqcdusOv5twarD6nHaMBLG4QFOXs7P62px8lM2rvq6hyXfq8cFH0ljxk31iDeS2Pl8HtWiV+hFKmOPoWRiGdtgWyIxA9K8CEkhQM3gQ/F4xxPYuHEz3vPOd1GVfIB4Hz78oQ/y+AlMGT8mXPuCLoTvacxGgm6PjSFJD3deVI9P3JrA8487eH5DFO+9NoKNSyuw7pJGnJF0cYHvYX4siRW+jTuqXdyRtnBnwsE9qQD3pH08kPCwNhrQNaH74/gFlyfEZmKLIR6HxzRoEkRnEKVS8fBIxMP9sQAPJaJ4nPnfF6/FCjeF+X4Ki/0orqJaufeIGjxyko+OZQm8487DsGn5oXjo+CrcML4Ss6hgThucxIVjm3D5ofWYP7ISi0fEcevUStx/XBPumdOAe45uwL1H1eFeksF9xP2zavHYtFqsm1KLR6fV48EZPGd2E1YfmcYVo2K4dEwSl4xN4zKSxnkjqzAh5WIkyzmWzzeMxK3xOHr3fp2HKcuH4cItDbjhuQYs/0oVFnyoGakJvultsunWuBrkZ7bX6K8iy9jNKJlYxjYQkWx1WRwSg9mKMlAvQenegSIUK9EQbZ/KwLElvTV9XdPgLcxq8PDxOxrx3TYP/70hjSduGoSrzhqK2hqf3/tIkXgqqUBaeL/Dog4OpwGPp5qYRgM7miRziuvi9dEYVsQrsCpIYrWfxJoCriFWBTGsjPD7SBxLYwlcEYniJF4zm0Q4w3Mxi3kcE0Qwls+i8R42FUqESkfjLMbU+3j9RUncdk8t7n3kODx4x7m49OjRaOR3aRqoiRMVoJiPxn0MjdgYUx3H2BqiOoox6YjB2AKOTMUwMRnHEak4xqUTODQdQx3fi7q1zUCzQl4iDZVH7yjKeyXsGNMTfOckB5JcUBnBEZdUYdE7U3j92z1cuZH5XlQbuo7Mz/WSLF8V8ysTyR5EycQy+sDKaHpmQiKRm2IGktEl0PgRM7ybykRzZbSWiJkrwnPDodkaAatxJgQlt0uDsEU8NFjl9bpxTeheVoV3Xufh3XdW4dKZFSZ/cz8nxWu1vqi2xyQRMT3CvzESkfKxPLlXLAcNR+NUNCo2QniFNBGXJqaZwVdEccCXIQCeU0R4P49GSFKMSGnxfOUd2Bh/RQVmtNVgwluXYMJj12PM+aeZ3idb5yt4zPM8klKUz655LXom5V+E8u6P/uQTQs+gbnHFm/henBjLHid4zPxtEoMGjTlMV7e51jmx+T517chZaazcWIEr8xZWdAdYdO8YVDZR7YlMqBZtu3q7e5Wxm1EysYw+sOLKcPoRiRnCrb8kEk14c0kaoWIhAWjMiRl3Eg4Vt0U2rPya7+E5Lg2V59BYdd3iU8egc0UDMldZyK2uwdQRMhYaggycButqEFvhfLW2xngl2e1K5q0Jaz7L4pMgIiQaGhmPTVe0upo1dN+UWWUKy2VIzCgo/ZWxhu6ACRrTtbHUNc1yqgwJujBNa1vgbU4j+rF7EHRuwPA3vgFOVT3PY74so1p/5evwWodEYBNy+UQ0MnrtxCcEvL9nyIfni0QFfRaZiWz5nYbAB3aU+ej5SGpUS2bIu56bz+KQXH2+M5GlBvRVDo5i4YMpXNNtY8kGC7dkRmHUpBqTpxNo3o5600LSKWOPoGRiGdtAFTKslMXWdhso+Mq/254r8uDfft9JVZhh9DTi0fT11y+uRG6pjx6i8+oWTBgtv76YTz/QeEKj07HIQYZKAyxARqjVx8JFkQgRiCGRbSG1ZFaLL0Ktu1pwldd855geJbk47gVUQh1V8LpSiL1tOazcQ4j0dCI559TwPiyPFI4m0YkY1Btl22m4PhWFT+XkJ+ATtheginlGgwIpFp/DPEuI8D3KXdK7Ull5XvG9mXNVvuJ5uk94fP419bg2V0EiSWFlh4MzV5MgSSKum+S9C9eXsadQMrGM3YCABmCLSNwITjjMR+/KAJ3LbGxcFsEdZ6dRGQsNpNS1uwUyapJA6HbIkMNJdk7CQvqW4bC70/DWkRg2nA2/82FYWzYiduEVVB1hj4jiF0kZv/KQyvJqSBxx+IGDVEzD1EVY4VybGA3cLA3Az7sMvSMqmnNXNOKaTBWWtFViUdbCtd3VaDlc96UrZNRSGXsQJRPL2A2IyMUp+PirzmtGz4ooOpdY2HR1BDecVkNVwfOM+/LKa3cLTGuvmE9IIiGZkBAGUUHc2gi3NwavjS7K2nMQ63gUTr4DQ+5/EH46bchHSiii62i0ntwVu4KqQxMTw/wPnzQVm972dtw07+LCmiwhsew6pFgsXHjNYFzbGcPi9iiW5nys6Ypi8ulhMNu4cSK5kteXsRtQMrGM3YCAFVzdwC31Edy1YBDyi310LLTQc3UU157TYAxacYpS1+4uiDy0OFC4slhoeMljK1CRHULiYHlbA8QePBPJDIkk24nq9nWonHxkYcCXYhvhuJjAp0vhV8OJVCCeTOG+e+7Hn/7yVzO+5j25+0PVM2BEIpJwMfX0BFZ3BljU5pNM+Lnbxbw7SIBxfS9CKxPJHkTJxDJ2A3ytrcGW9LgJmqjXhNxCHz2LbPRcE8Pyc+rNQKpwlbTS1w80tGaIVhvTyu9OccWzpIOaq+oR6ayG1cUy32ejZtEM1Oc3wGrrQGRzB2ouPjvMw5TVM71CMc+FHVTQvUkh27MZz//gh7jxDW/CN57/Md7d+uZt7rvrUDd6DHWH2rg6SxLJOliwoQrL8i5W0s1pHiv3Rm5UmUj2IEomlrEboB6MKs/GNedXILMmhfwCD5sW2sitjGLxhUP5vdwLtaalrx9oSAFpuQDLicN11DXNtEEO6u5rhtUZhdPrIPJmF+mTR6P+8Ydh5TfB2dKJqhWvJ2GwnFrkiH+1zkhcAVDtFROpxJFTjkZNbR3v4eO/f/gTvD9bJJKBMWzbqI0oGsdEcE0ugUVZD0uyjebvtT0RzDpPRFL62jJ2G0omljHgkBHFMDzl4cGFKWSudunWBNg4z0J+TQIXnN5IA1Hvi+bvlLp+4KGYTES9NVpHRV3HPE4elUBlpgF2l0dXxkb13RXwh8RQceNNsLqfokrJYchjb0Zy0GCerxXVIoiRgOIO1UzAvEgkxSBrtLKZRPIzvDf3JnNcTN91SAn5qB4SweJHq0gicSxsr8IClnd1T4BLb2lApHqAArtlvFaUTCxjwCEiieKs6bXouS6JtiUWsvN8vHWxgw0rfQwbou81onVrsHJ3Q0SiLml1mZoxJfxcf0EdYvkUrB4LAVv4+ttr4Fe7qL3hDbA2v41KpQPV6+9EMH40iY8uBklI42pSDvPTmBRfyy6G3diRqsH46g9/iffki0QyUMbt8B58Xy7dxIWVWNldTxJJYGHexpJ2H6vWN6N6ZPg8ZewxlEwsY6exnXynkW1N93HetEp0kzg6V1joXBDgiQUWWqlIBg2Skfk07HCBpD0BM0JXnyM0OsdDkKJbs7gOXhfJjEQSy0cRu4AuDI229qY30q15Ck4mj+rOR1E3V5tNaVBbxIymTROBGdyWoEoJR5VGKlsMkby7o0gkAxP/MT1L6t7luz1x/mCs6mnAgnyABTkLSzIJ3NBVi2MuLuXe6Dfo//ts91uVsSsomVjGjoKVWl2o2jJBQUxDIBqVqcWJNeSc3w1OuLj39dXoWh5H13y6NVQj+aUW1q4ZhFHNqvi26bosmf/ugMocqFs2iRjdlPjIABWPNMHKuwjaLFRlK5A4ieWi+1P/hmsR2dIJry2L6o4u1N94C6yqQSSOIJwuQLdF82MCJ00XR24a3aTKQXj2+Z/ifR13m2O5NmZhaCIcILdzhmw20TJjUiKYdEYtlnXStelwMT/rYmEmhqu7AlxwUxzRpEPCkTuliXx0G0lyxoXT+Bmz3INcuj34vg9slEwsY0dhiER7rmgPX1ZgVlZbJKLFjGisqrCTGqk+lkfRtbQaHXMj6KV7k1tl466FjRiSVrCT56mSl8p/d0D3iqrMlYiz3M5UD25bNRwaZXyDhdr2WlSdVM9zbfhnnQSfSsTL5JBc14WhmW6kp8wy32l8jObLaOBZ1Kuie9NglE66sh7P/uAneHfufkMk2jbC90k82uJUhr2T3cHq+QocbexVg2SzhfkbSCAdDt0bqpJMFItyNq7NV2PwYeGiU2ZbVcK4YgpmS82Ybna5kWUiGSCUTCxjR2GIRN2prLSsnKYF1jBtjfp0tWWDg6tOriJxRNF6VQQ9C+LooFvTc72Lq06Im5mujpnAtl2+uxMqM9VS3Kowbk7syiq4nVVwci6i7Raq11UjPVPBUwvxiUcg3rUWdj6D6PoO1GU7EDv2OD5nuHi09qVJysADnV90zzw8+8Of4K2tdxWO9Yzh+/B8r7CVh1SJIMMO1UPx3H8HuVCe5hRZaSQHBVjeniJ5uNsQyZp8FWaf1RxOAdA9qUDC3h7eUwRqFInKWSaSAULJxDJ2FIZIFHPQAC/JdlZYM4uVLT4NR3vjLjo5ja41HnKLXePadFGRdF0f4PKjq0hAVAPqTt3DisT1HKQo8d0aF4k76Nb0JOBlaegZG4k3peDUh+dWjZ+I6u51sDra4G/oRLKjE+nVq0gKPJ/f21QZ2jzdo1I4/sxLcNNNN+ENb3ozfvu3f+An3/4Cj2/AqmuuRlNzHRUC3xHvG7o2MmQRiohBMZT/rFLMxEltrGWn4KUdnHFdnO4M3ZuMT0QMkazOpXDljYcbIjfQGJ2iK9NHJOpqLxPJAKFkYhk7ij4iUUWngdiaDZugoUVN2qH1Kdw5rwn5lRbyWux5gYPcIro21yUx7/hmEknAVpMt5h4mEqkDLTWQODKFREcz7E66HG1UVp0RVL+xAUE8NNzasRPR2LEWVmcbgg1d8Ds6kHrTLTRS9dDQSOW28B3o87W33Y1nn30WX3zmGbz/45/A05/8AI+/ik8+/TEcMlp7B4cEJpUQEodIREYtvDYicUg+duF9TTyjEtf1VGFxhqok4+GqNgur8gnMvXUIkk0kJ00oNK6NiEq/DfMxJFZURK+8Rxk7jJKJZewEVMH7iIStn+1U0DePkiQsHNFUgQ3XDEFmKcmDSqRjkW3+PrasAlOak7xOaqTgvxfy290IJX/YBewfF4fbnYTdTSMXkXTE0XDDIDOHRoPW4slaVL7pRlibOuC39/D7LlS2PoLE2COYFw2SLb4ZBm8CqaXv1wdjyMVjkUlRjbw2IhFhu3SlXE+uiY0ZZw3BjV1NWEx3bHHOw3wSytJMgJtyLTjs2LAHSfvYmHuZ++r3KSuRAUbJxDJ2GIqDsIITJj5iZHSKEjxiYgfnTq9F26oGZEkkeRJIfrFNUnHw4KJqjEhqIFqSJLJniaRo0FoCoPq6Fji9VFEdJJWcg3i+Eo1LGmmAlllQSQortWIx3J4ueG29sNZnUL2lC/Unn8y89L1cB+UnIxWK9+n/Wd8XsM33Io+ie/MaFAnvocWPtJiUjpvGpLD0kTqszNtY2OZgUd7DooxD9yaNUxbXmtnMIcEViUSfSSzblKOMXUTJxDJ2GGGLvJVItKYrFQkrrZYOvPaiQchcXRGSCJETkSyP4P6FdSQSBSypBoJQhpfOfzdBrlQF3ZvbGuD0uIhkeJyxkcxWIzmHroOIxpwXoHHZUiS6uuFu6Ibf1o1IRxuqFsyFFdUgNBFJSKZGmfRDSA7/SQEUCWg74ikBV13IIhGRlsjAd3DVXTUkEgfLO3zj2kiZrMiSUB6ge1ZH4pDaU6+YIQ8pH6qZMpEMJEomlrFDCFtVuTSGSEwFVWuZ4LGN4RU+3nBFFdqXx40SCYnEQXZFHDdeUI3BERqwnYQbpzukwOAr8t89CI3cQmpKLVLrWhBQjURbSQSdDioy9UhPSRiiMZuM2y6aL7wEVZk8gswm+I/nEcm3oen+2+Fp1TSTH5UCYRZwMu9Cx7qHFEBBEfThPxPGv4PpZqdbo/dsFmvyIzh7lWYC+1jS7hpFMp9/l2VtXJtrwpHHD2L5tUwjCU3PYtRimUgGGCUTy9gRqEKakZYOjUjdv/ysQWheKL3nHFqNrjW1yC0hiZBAOhZ6yC9yzBybMyfGjeFF3apwItwAuTYiCZVjq0KS4cqAQ6PWsoy+VBPLmzwlhXS+ChEan5fl+T0W6jbUoGJiONRdroRWU4sMG4bGxx+GneuAu74TQb4LqUcfgDfkEEMiRRINiSfs8lYZzIpq5v79sW15dwia16MeMaoS2wRsbYycksR12UospxJZlPMxX13BmsS3McCs87XJuZaAjBfIR/cvulG7WJYyiiiZWMaOQEQiJcEWT70vGldhCCGqSm7hmFEV2LQyjc7FUiIuOhdEDJHkrkvjnBnh4s6eXUHj0ELSvK5/3jsJuRcamxKqA6WpLDIcGVDAewY08hg8ulOVSxKIZeXWsKXO2bA3UaW8MQKvOVyjpDgCNTVsCIY9fi+srnbY7d3wiKqebjSffbH53hCo3oUhEhFIqFDC+w8glL/UhRYvKryvkYfX4abMYCxtd7Cow8U8EslV+QArN9m4gO85iCkwq4WzWR6V0bwLuThlIhkglEwsY0dh5plIkXihQamCBzRkKpPLjm5Ez4qkWQ1NLk3HQh/5pQEeWVqBacNosDI2m26Qq+Hjhfx2Ea9UJEUi0RB+jb4lafHYq/LQclcDghzVAxWJ00Fl0WOjannakKMGftleSIippsEY/sjdJJL1cPK9iLR1I5HPovby19Ooi+pj6/117777G+MdIBiiEpEo9qE0vve4CCOBa7tjdG0cXJX1sSAfxZJOC2vWD0O6TqNaFVthecw1ZSIZYJRMLGNHIeJgaxfOtaHh6ZgVNuW7uP3KMehaHi6raMaQLHSRXx7HrZfVopYVW70ijh1F4Gsl+H55DihkMIKCwlJOGldhIRjno+bBCropDtw2fse/sXwETYvrYftyV7Q0gAuXbprtxRBdOBf2k+1wO7sQX9+NeC6H+rvvQKSW5zM/EYcIpUhiffcvqJoBgfIyioR/Tb78zHd9wepGrOlIYUHGxpUkxQW5CJZ0WFi5rh4jJoST+LaSmshRXcIDWK6DGyUTy9hRFFrcMB4QVmzNUG2uiOCuq4aic6mHjkUkERKJyCR3dQXeeOVwVGm4OCuz2ReHrfqAugEqUz/IRVG8Q/fRMH6dU3tBLarzFXAzDgK24k6XjVQbXZ1jNJdFRMJWP6p5MeGWEVWXXgjvbTlYHTmk1qkHpxU1ubXwW7Q+idwozxBjhNf2Ga1g7jdQRssySZEYZaE86a7x86FzolixoRJLNYGPzzOfz7Mkb+GGzmqcduUh4bV6D2bd3DKRDDBKJpaxg5DRGMMRzPgGSWcLp89qRtu1TcgtstEtt0axERJJ+6oanD+rLoynGGMLg5W7jUh4HG7WRbJSsFIGFLGQWJhANEv3KkPlQUVid9KteYwKZZQCsdqXJjRYTXzTNY0XXYj4W0gk3R1IiEgyOUQ7N6DqlJOowhR3CRCnkUf5POa+MnZDkIq3hOS16xCRhG6N3LNw6LuF+tF0bTItWEJFsjDnYQGJZGE7XZvOGM5cVh/OxmaZNJpXvT3aG6hMJAOGkoll7CA0v8aQgDFc+d6ChbOnV6PjhjQViYXuhYqPWMgstdG2uhkzRhR2gysYezGm0D/fnUex1Q2PDdHxHooPhDECiyrCR/qhCtg5G367D4+waHgt65qRGpnmNQFch8+l8sn4mF9s0lSkso/D6upAhK6NneHfjXmMXL4Ulh+D7cYQo3H3EaRx+bT3jkhpoIgk7LERkYjsXM3q1ejbOh9z76jH1V0+3RuXbk0Ui0kqy7Vy2oZm1JIczVgSUw6qMo0tKRPJQKFkYhk7BE3K0+hUVkrTAquHII4EjWjBqSnkr43QpbHRNd9BF9VIK0ll/eoWzBytdU11PsHrQiIZqIodGr6Mt6h0NFnOlK8wVsUfHSDRmoLVacFrDeBr64kOujt3VCKo005+MThe6KaE19D4qhpQc+9dvKYTblsPrGwXgt5O1C+eDyuZpMpJ8F2E++MYElEQmtdreQWR7SvLuTOgklAQmPlraUrHSlNdhMR96pIqrNkYwYJ2F4vzESzJBoSFVZk0WiYUFIjGnqhM2slwwN73QY+SiWXsANTNGaHcVqwjDLJqunoMg1M+7lnagLYVVCHzbWxaHEHXIhe5lRZuuawSjTG5P3IdCGMUClIOTMUOu17DWIi6gE3wUySi8mkjLhp4zSkNiOVo/F0OIq1xBK0RBBv5LPPpNgQigySciPYbZn5RPRvTKhsx4q574eQ7qV56SSTd8PI5jLj/LsRGj+KzBAho5GYCn+4lAqLRBiSSYlxm10ECcIpEQrIjkZhFs/l8Uy+MYEVeK8tTlbR5dHNiWJqzsLorghPmNrMsmuynrUU1ElcuaJlIBgglE8vYQchQjWujNUVY0WXIY+sieHBxLfIrXWQXWdhEMumhe9O+JoplF9QYAzdrZBT9fbkeA2ZsioOEakT5ahkDTb3XbnfaFU8GXrt4CILuOBwampehesk6iOZTaJjbZIw0ru0zSCjac9eOsFyOjUSiDsNuvhnWxgyczh7YrVlY+QwqO9sRO2I676stM8M9hLUAUbg6nOIr4ZiU0mXdUfAd650x//AZtXCRiMRFdKiDRY9VGfLQbODFfK6FVCerulK44OZGlkfkneC7ICmawWyl8i9jJ1AysYwdRDjISRVTaiSU2a8/cSgy1zQiu8QxPTVPkEg2LrTRdn0CJ05L0AhkWFrFKyQS4+IMFJHI+I0B8zNJQdtrenaChFBBAiOp1DuI31ZPV4YujEaz0r2xui2kM4NRfXqjIcYE8xAhaQEix6eqCLRhuYfgrDPgvCMHO9MGr51E0tFGJZNHzesupUFXkHyozvgsxr0xPSQy+gE0Wr0n9doUnk9l9Q2BB4jUBVjwwFBc3UmXJqM5N5ZZfnFZpg5zH4wgPYxl4TvX9qnakLxk/mXsDEomlrGDMAbbRySS8RbmnTgImVV1yCyx0b2cJDLfQfcCB2tXV2B0k3brl5FpoBSNQpVaZGLStua70xCRqGdCn5mvFImrIeIewbTk+CRq1w2la+IbRaI4iVyc9EONcMeEA7dEPsWeHq2k5tEdUCwoOOF4uG9pN6ulue0Z2Lk2xHo7MXL1G6l2qug6UN1Q9YSKi89TnHlbLNuuogSRaKU2x0kZl+3oy2vpylSY3pvFeRKJJu+1pXDjpmqMna1h/3wGKZKBetdlCCUTy9hBbCUSDSoLR3kuOKkZnavr0LGUimSRjd75FroWeXh0VTNGN8eMQYcTyApEMpAtpNQEjc30AjFfBXEdBYE1R4XGFpkQReV6ujBZ3pvGZnXwnLyP+ruGwNOK9iQf7evrU0kEiuHwGgVeVebqk05GxRYqkbZ1Zg1XO9uGSM9GNN10O/zawXSLeD3P1ztQ4NWiotF6tOE7GgAY9SYSCN0lE1syXblaisHB2DlVWN0+CEvpqi3mcy3M2ViUiWBVZxJTzyKR8Ho9hz+Q5FZGycQydhBFIlHLqOOWyhhuvWIIMsuSZsavxo/0LLTQsSyOa85tQGVU5+oaSfLwmgGFDI0EIGM2ZEKDs+0ojZz3i1uouCSNhBZ67kcksfY4Wm4eDq/BD+MqJCK5QYYMWF65NzI+f/ghqHjkPvg9eZIIFUl7O/zWHJrbMqidfWx4f56re0d1rU/lwPKE5RgAGNIVkYSkbYjEjcB1avjMAfxqG1fdMdysJr9IRMLnW5TxsCIfw7w3jYSXogqjKxSu+7pd3mXsLEomlrGDMJPBaLhOQQVMGJzCumuGo32JSzVCJaLlA0gk+atrMff4IeF1xpVRqziQg7UKUGxC68XysybvmYl36jKV+qmwUHtjHaL5BJwM70tjszQQrbUSVa+rDAduyT1hmRTnMAsbKc0NW3IrkkL9jTfA783TNWqHl+tEtK0HlV2dSJ5QJJLQwENFws9GFTF9IGCIRO9LsSi9O5WL9yCR2DafiaR3xQ2H4up8vI9I5rXaWJaLYt69zXDS/J1IPOVemwFFycQydhDq2Yj64SbhaoknNEexbqVWRLPNrF8Nj88vsdG6vAknjmOF13Xq0TBkImOQkQ9gpS4QiUhEe/PaZgxJqHycYQ5S99TA6/DgtPNcQyQOhrQ1o/54tuoyVHNueH2MRmrWSVF3Lo89L44x198Mt7ON12bht+Xgr+tClEQSu/Ii2JHAKBA9oxkZy+ul2EIFNgDoUySKR2lwGvPme3SdSt5DiyxZmHRSDa7rbsQiBVv5fPMzdri15+Nx1B+ma6VmyuNIBhAlE8vYQfi2RxIJ1UicFXnuSY1oXVll1mUVkXQuspHl50eWtGBYIuwe1mjRkEhEIpTmu4FIovycIhQsVdenjDl9Qg0SXfXGpfGlSKhGbJJKy4NNSE9Q8FfXax6KZ65PiEikSAoD2ZSePu40xDZRkeTl1uQRadsEJ59Dy+N3wq+rNErGuHt8L1IlAxYf6YMUicqqRbZJbiybbcaUKJhqo2lsAsvWN2NZh41FfM4F2q6iNY7rNkUw83wNGBSkaAbwnR/cKJlYxg5CJKIuSI2f0I5zay4egfZVaXSQPLqoRjoXOui82sGdcxsxOKoeGxpqEAYxRSQOK7bZxmK7fHcaIhISh4hAG1eJCBwey9VJnloNv6fC9NQEmmPTSwLsiaLmuipY1bxWboPZgMozK8wnqSrsgPmZwWUyWAfRw6cjsaWDiiQDbz0VSWtIJJVr70AwvNlcF44j8UhE6jEKry1Z1p2ClI5IIxyI5vP5NPFRw+XNCNqIhfNuqsPqjVGz9OICzb1pS2DNRhcTzyxcb0uRbJ9vGTuJkoll7CA00zfiJdn6aq6JhavPq0R2VRwdCyNUI+FEvfx1cZw/vdJ8rwWQjPsgIpHR02jDQK1a2lfmv8MwZBAqCjMylZ/NZlZJF003a6FnEkWWZc5T4vfY8Ghow24eCieh+7M86qmRu8Zr4zw2e+0KBTJIT5iKuu4NsPOt8Ns3kkg2wsnmEWNa6qwzjDHLxdN4EjOgTeUx7kihfLsMlVNE4JsyqXxmdjPfq2fiJxamnVmPVbkYlpEw57fHSChRrCJpnrWqEpEU3z8V2yvzLWMnUTKxjB2EYgha7NmxajEoZeHW+S5yK6LouKrWkElmmYW1N9Th5Gl1xsAixkdXd2yhpTfxB8ntgWolQ3fJ7OBnEOXnCLx6F5UP0q0RebQzXYs9b2R5On20XEOCickIZfRMFwnw2uJKa2ZZQ5EeP8daGlF//y0INnXAa9tCVdINa0MG0ac2IXbpFTwnXClOC1+HZBnGXF5Zzt0FB9UtAa5r13gSC4uz1XRxYmZZgZUbhqByWJJlKnVdGTuJkoll7CBMMNLR4jkVmDU2hg03JZBd7KL7qjS6F3joXGHhtgXVGFLlGYUQ2Fq8WJWZxilDMy29fPZwVOyuIyQSQwBqsdVS05D90T6Sj1ab5QK0m55DWF0WUh0xxE8TselaqRH+lcvA60UIYT4hkZgeoAgJaeWV8DZ2GLcmQlVitWURbO5GctFSvo+0IUwTnzFKZgDV1msCnzVm44Jrq7Cqw8WibIArWx2s6HawZG0NUiSZ0teVsZMomVjGjkBGZ6R1uMjwMeOT2HBtzPTUbJoXoHeBhe4VNt4wfxiSXjjFXgrB1khMI/l5rUmT8cvgtst/p6B8FHsp5h3mW3MmjShXDbfbM4FWW4qE0r86k0ZihnpBdD6JRK21gph0a0IFpTxIIEwTkagXaPCqhYh1ZuC098Jt7YSb64CVy2DoQw8j2TLS5GXcKr2fPUwkGtWrv7POrsWajrjpvVlM1aX1Sa7JpXHkyWFQthxsHTCUTCxjR0FVoSHaavlPODyK/HUR9C608MRVFjbyb9fKCC48tgYRT5PnNIVdU99VmcMKL4PX7NiBW7ND+Ybxg5BImC/JrvqSGkS7SRiU+Fqj1aKBeVQnTWvrkJ6s8hSIhM9julT5WddvSySE6yB96vFIZdabhaDdbLeJkXi5LBoffQyxQ8aYvHSdiCgktj1JJCFB1AyLYPnaWjOeZEHOx5Kch+t6ojhj8SB+XyaSAUTJxDJ2FMYlCJB0A1x7SQtyK31smm9hM4mkm8qk45pqTBquCXqhoWprhL7h8UwLiST8u02+OwlDBjJeo5R0rLhGHE13DobTRSVCw/LaPDh5G9EOHzVrquBUqtdI81cKRELV4RpXK1xKoLhMglEYPA5GDEPd44+SQLpgZfJEDl42h7pMO5rnXsFzQ/WV5HWuRtQWgqB7Apor5FAF+TES+A31WNnrYIE2GW93cB0/n7qgiueVSWQAUTKxjB2FXAEaYKXr4bZ5Lei82kPvPC0dYKFnpYdbL6lGjabim/Nl5EVsNS4Ze19+uwgpEBmSUUo8Vt7BiCjSj9WZmIjb6dAd8WBTmcRzETStCJci9E03NK/TuBGqJ3VLiwDUnau5N8pP65oov9SwkRjx+FpYVCJWLoTbnkO6M4eaqxfB8j0EJBMFXD25GgPaa/Pq0HgebbkhV3PGuTW46ckKzG8LsEhLCnTYOGdNDEFyzxHbQYCSiWXsKEyr76DKc3Hb65vQfbVPIrHRRbcmuzqOlecOMq2zyKNIGOFfGRehVl5kVGjtdxXqfnWlANSbxGODiQF8rYi2kYRBInE2kDDo2qQyMdTMrTKD1uJWikbP9Ajz8eVqUTmRBDQWxMybKRCJXJZ4QwuG3HUP7KzWJMkxrxz8tjyiXXnEbrwaVjqFIAhQw3NNl2yhx2dPQM8b2BoGn0Lt6AgWr63GkqyWXhSRWFizYTCaxlSWvLaMnULJxDJ2GOHozQr+vW1uIzqW++iZ76BjiY0N11bilCnaB1jkEU59N/ur9LvWkAiNNFQ2uw6NktX8HxGC7qd71VzcgthmSnoSiZuhcWeipvcmsS4Kd5oUjIOUxXJqMluU15j5MupZco17oqHyKqNP9ybFY9uJIvH6qxD09pih8lIkQWsH3Fw7qtseRGrcWHPfJj5zROQ0QM/2WmBGGDsR+A7JImXhotvqsSyfxOJ2G0vaLKxubcSgw8KYUBkDgpKJBw203oZZEFmGXQTTQyhmQAOQQRpDpzzvN5ZCBmryMZJda4c6GNPg4YHFFehcHKB3oY3cMhuPXNOE0Y3h0HPlaYjEfC6Wo5C/4iwDpEiUt5SDYhPaDEvKpGppA7yeqCESJ8vnbuez0LUZsr4ZycPC8gV0BzTxMJwHpOene0CC0Sxgs1Qi89QmXjEeqyeo6dIrkNjYFSqSbKchEj/ThnjnYwimT6CKcalIXLOmiRkz06+MuxN6/pgWo3aSJEQbY06twOrsICxvdbCyzcYNmQbUjQ27gM0WHeY3IPgbiOSlHk2Q2PweLDvPMXEijYdxw1iXcPyxx2L58mVYsWwxLjj/bEQiEZ6rGJjeXfg7m3MH6Hfdh1Ey8aCASMTTUoIRF57v8q9nFu/xaEBaPV1/I5qIRwLRJlFax9SJUS5TrqvFMwpDFYQGIgmt4Oa5c1x03OCja0GEisRCx8oAK88fhGSgmcGskP3uv1tBY/dpQCmWK6qlBcdHUPFgGnYHjSXLcmRoEF18ho02htzcjEi13AC+E5GZITttRxGqCGMMhkBD4zDES8hNqz/hVKTzmrxHVZLpRmRDJ2IbMnC2tMFe9nqk7Aq6RczHjLPRNXsOWtnNckmQ0RiCWg/zbh2KG9sjWL3ewfW5aoycE46bifJ3EeFpOL+mLXisF5pWIOIIyd3n7+yimscRT65eLZLpOvSSQH//0kv49ne+iW9/+7/wq1/+GKe97hR+z7qjZQ14vmDqiJ79wCaTkokHDVzTArFF0joWXgV/9K2tTRFGQZBgND3dIaFoV3v1YGiQlqkcprKpB8bBWUdZ6LzORe9VATZrjs2qSpw7s8nkUxzbsEcgAqCqkKuirSCSU5Ooy9SamIgWM7IzVCndJJuNHqovo7sjl0WV3VR4uTTbEYkUBdONktLz6jwpjaahqHjkfqNGRCRBayeiG+jmbGpDxV230EDTbN15rebqmGv2DFTOiBoEK87yUiXw+c5YMBjXZ5JYRvdmUXcMZ98+yCgvTQFIGdVEBUOi0N48ml+k5RiLRKIdFNP8rR1tNRJvwZMf+Bj++vtf4bQzT++759hRwzD6kOGFY9278O7KRHJgQxJWxhOQRDxWeI1KHTZsCh56aD0yuSzue/QuHDltdCiTZVDqxRBYQc0CPzIQQySqcDRMVsizZ9noXeNiy5UBNi2wsW7JIIyolITmOTLM7cqw26Dy0gikRjT5Ljo7gmQbSZKujIjEkSLh5yQNatAVjeZ8s/K7KjxbZPV4FIlEz2+e0RBMSAhmNrDItGEwGkkkrnpuSCRuWxfJRBtotSL55ptIvrV8t2rtlYeu2TPQb6t1VBJsGDT/SaqgaVwcK7INuJRK7Ly3WzjmzjDYKmWpOUWOrd8pweMEr6WrqliRz3fgspHhu4gVyj/x1Hn4O4Bbl18V3ovvyzQq+kwEJF1NUjTvrQi92/7HBx5KJh4U0FR+Tf+PaqYrW+3LLl2AP/z+L/jqs/+N933wA/jZb1/Er377E5x38nGmdYnSmPxA65lqQlq4haXJS0bmKcZA12aaj82roth0RRRPLq/A9WcNRhWVjJkgZhYofmU5dgtYcR1WaJGBnXDQuLwBsTxVUwfTqUYEW9tztsaROC5cxzVqVpgXYUiSy30LicTkR2ORoioSiYjBjDdJ1qLy6uVIdWgsSQec9k4iz7wzVECPo27ybHPeVhWzZ6A4TpQqMmbHSRJUGSp/ysK065K44GMJnPRFF0dtqUbtUVWIDCGB8HlszcbWyvkkHp+KzMTHjEun59bMYuXt4obHN+H3f/4DxlSH+wn3JwnFVuK8t2aBh2l8X9udc4CiZOJBAQU+fbY8gWmJLKxeswzLVi40rouODx13LP7+D+Djb9tiWqwoK4hZDNlIXVU4GiqPtQSh5Wt4fAIXTI1jy8oENs2LY+PqBpw1oSa8n8885R7o854AK672uDXPUqkV0WrM2BERidtOtSFF0mmh6v40nBaHrajWDVHry2v1THw+kWWfAVDmizgVdDUkErGp5ESMlPwnnYzqfEc4nkQujpBrR013O2qPP8EYpN7TniQSlVuk6NPl9DQWRmRfbWH4TUkc90w9pn43grGfiWD42maMeMNI+Aq8xngdyxj2rCkepPcg1UoyZmNj3BQrhfZ3fxIv/ORHeMPyK/C1r34J3/rud/G1557DFXOvRIwKRuvRhF39vKd6q/jXxEpM2gGLkokHBVRhfCcF34sgoGH4qkjF7x0pjBZ85Zmf4/tf/gzqRCJMVysvn1kxhIAVzJWrw2udeDgC9MzxPnpWeMjMd/Dw0gaMa2L+NEKbreOebJVEIo6Ch7xn4sgE6h+uNcFVEYmnHfXaWfYOB033NsAdpBGoAcmSzyAiodFJoRmXRGUuQPLeVxqJ047IJRThOmg45XVoymtAmrqARShdsDs6kOhsR+S8s3itgpU0qj3o2hjS4v3CledIeCS/hvMaUft4JYZ9pgJj/yeGIV/j+2m1UEl3p3pFU7gWS78y6vdWA2J2GvS0aJKeoQbt7/ok/vqX/8OzT78VKxYvxPyFi/DE+z5GZwe4YcVivrdwnE1IJOG6siKWkIgOWJRMPEhARcFK7tDtUO+N0P/7CZNPwp//DGxa/6ipBJ5aK7koxjA8RGioZh0M9UgQ1ekoHlo1CJ/OpLHpdg9LL3aQYLr2mI14VDB7tEUmkfg0IBJA3Un1qM1SGfUwvZOE2RqFS9cm6PSQWpI0a7jGqaZimpEs10Yyn6QhIjGtqMrNfKRYjGpR4DRKI+M9pFpihx6GugcfhN1JMpEyydHNyXXCy21A9ZtvQSReWFpShNS/jLsTBfILn4HlZSPRsuIQxNtqEH1HgFHfS2DwM3RfNvJZcwFq7h+C2GHFSYsiACoSXm9mais/Xw0L36dTh7Z3fxq/+d/v4Ij6reNQ/ORwPPe9/8W3v/w0alknzDUKrjtyG1lXeGy6kw9clEw8OMCKIhJwA8paM/elBiedfCFWXXMDbnzjzfjRC9/E296Vx/DaClMxIlFKXNOlGIHnh1JXS/wprzlnNOORByfgs28bhJ9/pQLf/8IQLF6i0aLM36mkkdKFKt53j0CKhBWflTp5YhKpLA1hM9M7SCQb2Lq2+4j2BIifTdnPMqYslTFhxlz0JxLTihaIRNuSRmVMOidu83wbCSoZK5ZG1a23wu7WimlEvgd2pgtevh0VD78JXkxrqYZ5lC7rwCN0W10z3sXENhIWGleMQDRTZXqr6j7ko+EjbEjo3tlZD82PDkdiTDL8TaXM+C6kJswOhbpeY0fUlcz3dFv23fjHyz/HUU2F5/JFKI346Ge/hl//8JsYldTK+0w3g/CSPEdqr0wkBy4KRGICatqI2mrGQw/k8O1vfQfPfO2r+P1ffoPPfP4dOH7aoTQYtjokEVv7wlCVuC5bdUcqw8Gck5qxrmM0OjL1+OQ7PbpCFp75bBV6t4zA1FktzNtFgu5TGKzbMwi7mtmqph3UrqpFNBs1BmSWV1wfg5+JIM601GwaB8lGvTsRxRL6XAIFkwvuWAEyTLk3Jt7A96a5NzG1+NE46m+j8uimEsn2kEg2wWrLkUiySD9+P+KDwyUF9iyRqKwaHyIDDhXJ4GUjUZXl79Flo+HpACO+Tvf0Hfw+G0PLbaMQb5F6EPHwXTmaY6T1XJSP3iePfQ0NiGHu6ruNG3PBzCP77ucmBuOHP/klPvfh96CGRBwSid5fGLTV8Z78/fcCSiYeNNAIRA0eCoNyYdC1iEmzz8D3f/oS/vSbr2PqkFpWBrbS2oiJxuaQSGyrFum4jwcfbUF3ZxUyjyXx0fdH8PVno3jnWyLIt9Xh9jdOQkU6ErpArGD989+dMPvhigyqXFQ9kKZaoDHlCRJJtDWGZC6N4M12oRtXhsfvitcbg+93vA1Kp8fOOQkVmrTX9oRZn8QnidiZVtTlujHowsvC8/YgkfQRoly8QuynZmYtBt97KLxOH7Xf9FD1wyjSX0igMleHunMHh0pMi16LAHi91IZcEiFcmJtqjO+1btBI/PiFF/Gt576Fo2bMxNhDR+Od73y7IZdzzjnT3N9VcFnlKJCwGZSm4wMXJRMPHrDljgRJBPRldaxWQwFVLxoOTFu0+h5Wj39h+YXHs0KyUip4xtbY1nB5tlwVKQd3PpBET6+D7qyPdzwVxbvf6SLfbqEjF0db+zg0NrI1U0VU0K54390M06MkNDmIP0DyU3wkRwPJs7VspQGRSFJ3Ml1uSonrdxTp6RNQl8+RRDbBbqdrk90AJ9uKqq5NqLroEnOOcQP2FPiuZbzqZZLSUvBZ7k382DTq1qcx6isxjHwuhcM+W4/qFUm4tYqR+WwoeK6UGInHNBjMS4okVBPhb66/c447Ec9Rub78u5fw+5d+i69//Ws499xztrn/NuU58FEy8aCA1IgbYcWgGkmnm3DisaciUAyk3zkPre0xRHL6UUeyhddAoygcrViugCO/TyUCPNo6FO0dFrZs9vHss034yEdiyGUt5DptrMuMRE2diIQE5KhnZ9sy7C4UjbbxhAbUZitNb43VwWfT+iOZOCo2UJEskA+/7XU7i+oJE9GYaSNZ9VKJhERit29ArKMb8TWr4cQ0YrT0tbsDcm3k0ihGkrI0loRunnrlkhaa5yUw6aMJTPxEHEf2xhGfEX6X9KI8X70zJAwRiRQkyUjlDomEBKPxJV4YZI0n0hg+pAWHDBuKyoowTXOKfJ/3Ng1NWJaDBCUTDwoYtyaWpIHHkEjW4ktfeBbf/MY3cOGF5+G001+HBx9pNXL1Q2/rQkPKo/tDf9lNQauDaeyIS3USJaGsuWEwNj7hk0Bq8N3n6/H5LwfIiljeWodL5tYat8Yx3cnbuk57AoMuaEJlB8ucp7FoRGs3/fX2CGofp6s2e+DK48YqEX/DTbB6N8HJdPE+dG3aNsDNdiHd+jgSg4buBSLRBl8KCMfNfJ9A5EA12XJmClN7Ezi028Ls3hRGnheOcK2kKk1YCapOkoBIxMTPQiIxQWfmFQZQSSZ0bbe/px8EiMViJBO+56Jrc/CgZOLBAbY2ji+lECqGyZOno6urCz/72U+IF/Dj//kJbr7pVtRWpk2LZMZVWEkSg3xukpCt9AgqqzzcfVcFvvfdI/CN71bh68+n8e731+OOO0diyJA4CSuAZwJ1e7hyUcpXXJVAqouVO+/B6fDhdhKtDoatZSs6bWDW45D6UWAzefUy+Bs3ws93kbTW8Z45uB0bEWl9DH7zsIIx7ilIWXrGvVHwNGL5MHN++N3I02pwTFcaY0j2k7tjmHXzMEQqwvk0kcL6K0aREHq2IsJ8mQe/VzBb7pLZqlXfy5UhRCLbluOgQcnEgwMKgBkoiBbGSAT1zkR8zQTe6uaYMSTG702zApEUzD4x1ax84cjVmVMi+NQnhuKrz9Xj2e82YdnV9WiqV76syHYdWzCfCPPaU/CHe2h4oBJ+hiSSpVtGIrHockU7A9TdUgO/KSzfrkKGpG7S5IJ5iHb3wFq3AU5XGxwNTsv0ItbdicoTTip57e4D1ZZG3kpVaKyQFIkJltoYcVIVjulMY1SPhVG9DuasOwTxllBhFJdNKMZHpEa2ksh/QrGh0N9S2P78AwolEw8eGCLRjyyZ/0qp7/tR0+qYFqpAJBpjoPVMbTtCVaK1P12sWlqDrlwUXZsDdD9J33lEmFfEq4DrDKZfzUo8QPGI1wp/hIvUWpaxkzI/TyJrZytKQol2+6hZMXBrlsrgjGKbOAFVbVn42Rys9rUkEa1R8gQi+U4Mo1opde3uQ4FI1CtF9ahGICQSxxDJnK4kRmy2cMiTFqY+0ojocBGIrpPrsjNEIrXzn1DqugMGJRMPGkj6htK1IIVZicwMXxKH6b1xpVRUKXm+IRKqEboqToTGE+U5lLfV1VHcc3c9erqi2NBuoS3fgtGHpJinTSUjn5uKxKcR78HuXyEyzUfUxEZY7lb67TmqLLo4foeL+KUkSPVmGHet9PU7itjo0Whel4GXycDJt8LJ5GG3bUGi6wlUrVgQknGJ63YHNFdIc6KMIuF712zgmPmNHYw6sQLHdEcxfJOFwzZaOLW1GYee1FC4ttBomECr3JZ+BNBXV0KExFP8q/P0Lv8dykRywEKVwXT3ms/6oUMiMb6xXBkTMNOAIo1yZLpRFDymW+OIRNTasRJNm9WA7t46dNBQ2zIJtGXH4ZBRGhZOn9lTa5iC6xfIqHDvXQfzLcBUflXmQsUujglpen0DYhtpTDmqE82vybLcnZT4bfx+EtMUWDSVvH++Owk+W6JlGEbc9SAVCIkk2wo31w2rbRPi7T2oeOgOeMObWTa18lvLq7JuY6wDBM1cVnDcjA3hffQbR8yz2hh5UhJzegIc2mthcpeFkzdUYsZl4Toi2sPZNBgiE/7+4fvdmu82RFKEee86T/m/Gvpdc+ChZOJBitAAt4XW4BCZFFwTTVSzo3RtaJRUJrHAx7wlATZu9pFtd5DtctHWMRIjRsp14PmmFZabIxTz3FWonBp5SreFMGSgsqkV5V+zJCLvm1yehNvLljnromJD0rg2Flvhmkwc0bGazBaOiSh9jx2ADMmskG+j6fyLkOzNwOqUW0MiyXaRuLJIMC2YNsUEZbWIkFFnJGMFsDXs3qweN4BEa4xd5XKLG5IVyIt/h74uhqM2epiYsTGdJDu9O4KRK+mypixENS+K5TFKlRDpbUMaZfw7lEwsowCjKkgCW4mEFV7zcszQZx8V0QgeWleLDrZs2YyLTKeF1o7hJJJCj0gfkcg/35rvrkFEonkw6mlQIFFlYjrLp8pv1letcRC/lUTRQ3emw0NybZSuBkmDrXDy9gDBIM2lkds2QESiGcH83HzOuUj3tJFIsoZI7GwH1VAGka4M3JnT+C61kLQLV6vUGyLRMPvdRSRSFj6JQURSzN/GkNOjmEUimdJuExYmdfs4akMLkqPk7onY+HsXiETvskwkrwklE8vog6S3Wm8anJG7MtoYXZYwyj+iJYqH11YhTwKRIgmJZBRGjCgoElN5B5pICFV0UzYppqJ7tvVvakwcjZrxq/k1GQvx9VQmORrVpiiS8+mqmXEwCZ7L5+H5uwSVJVA5HAQjRpv5NVYXFUlGa5N0wG2nGiGRNCxbDMdPGhfD9GDFVAbNh5ECKJBhqfx3AluJJJx5uz2RSJFMpos3uc3C+LyNOZnBqB0fkr+WVDDPxPPLRPKaUTKxjD7IWNXVy0qpiqgJa+qt8TT2xMLZZw5H7+ZmZGisuayD9g4HuW7FSGrD6/uIZGtX8oBARleAyENjJNQFq8/6PjY2QLqdioMKxNGweMVFMnQr2tOoODtlrjPrmQ4EkRBafsCsV1LdgKYH74bdQVVidt/T+iRZ+CSWwbfcCCdIhUtbami+AtY0drM0wW4nksLvx78hkbiY3OpietbDEVSTM9urkRwbjjw2q+6zLCGRhHltn38Zr0DJxDL6oBaJakSVXBVRFYxEYtwKx8bFF9Vh48ZatLNly2VddG6M4MY3DkJFhSb1iXQIS9PSB8Zgt4FRSGFFl18fI2GZTbFIdk1n1yKWJ4H18HsSiZcVoXiovL8OzlDH9GJEbE1xH4By6Z2QSBRP8CrrMfiONyLS2UZXKks1ojVKcnA7O1Bz2xtgVdXz3bGcWvfED0nQDPTb7UTC9P5EsklE4mFqxscRVG3Tc0kcem594Vq5sfzdef6OjSM5qFEysYw+lCKSKHwngkGNETz0cDO6O5PIZ2zkMi42bkngkrnhWp5mcJPIZICJRDI9XK2Lx+qV4OeoFSVi4fiWlI2RawbTnWC55dpowWetHk9F0nLvSEQatZgxjYSEGJZv2/x3Cnw3UbO/bwTxs85EsrMVfns7QRenI0+3Ko+61nWIzjjKGKrZzqJAJOHcFvVuFQx+APCfFMksKpKp7VEihsPojs7eFMPs1cMMgYQLGGnkatirVyaS14SSiWX04ZVEIldFJDGo2UFbtgL5rB8SCV2b3s0pzL2q2lxr07DDbsGBJpJwHokhEjNyU3EGrZZOV0Zd0nUWGq6vhNdFo9A6rTk+g1RJR4Caa5rgJ7XgDw1lAMvkshyeeTcOqk8+BVU9bXSnWhFppSLpUpwkj+qeDlSdeqo5vz+RGOVWGDS2+4iEz7odkUxujZBI4hhHsp3W62PmmiYTOzJEwuvKRLJDKJlYRh9EJIVK2I9IZDBnnVGHro0B8u0+Otja57I2iSSNufMUH9F1UiaslANMJD7vbwKCIhIRB1vRwEqYmId6QiJTAjQ+WAlHM35zWuiZ9+Znf2MU3lkaqWshaYyF35vn2XXI6MJ9ZHwkj5qDyuxjiGr2r/a46e6Em+lErCOLxHnn8dzCcHSjpoSQSMId70rnv6N4dSKJhESyQUSSxGG9FmY8SSK5jq6N3ol5t5qDVSaSHUDJxDK2QaESigxUOQuB0wULWrD5KaqRNheddGuyVCQ9W9K4/MpCoFUD2QyRUJkMZOvPim6WA1SZjCJRoDMNT2uqRCzUnlaNukyFGYhmZSNUA1QvJJJYZxyxk5LG708VR30OIJEkAo1r4buprEHlnbcg6GhHRMPkO6VIOhGhMhl6+5sQSStOwmsKRBbGkjS4TuT7yrx3Bib/ApHIjTNEUnjWYafHMbvHI4kEmNIWx+EbLRxB9+aE+wahYohUpNQe3w+fKVRMr8y/jFegZGIZ/aEKKKNVS2VaTQ/VFQncfEs9ejZpESMbXR0O2jMeup5MYt6SxvC6IvkYQmHl3D7fnYV6jggRgoxEZOXQtfE0xZ1EEj87gWgnDYLkoa0nvHa29pTvFW9OwGkMt+BQTGUgiUTP6mtKgUO3y41h2JpVsDevh9OZoyLKwM9k4eSyaLrnfviVTby/i0DPQUUlJRKnoZs5TQNUHrl/ZoMv5Wl+O83W5md+N+70Bpycq8TkrIXJGZJIh4sj6fqdmq/DkNlhF7DKFM65GcA40oGNkollFKGKbaDKJBdFf22MO6QW3b2Hoj1HEslTkfBvW8ZGa3cMJ55WIA61uCZ4p/EaA0wk9OVFIlqTVATnOVQktgu32kbTDfXw1GNjiMQzRBJ02Gi4rQp2pdygODGARMI8HI/35rPKAKUsYieeAO/JNlj5djjZLMugvznU3vsAnJpmE6OJ6t2Q+DRfKSUi0bEx+l2HiMRs8GUIQWkaMq9ufAt1k2M4/rFqTM45JBMbR+aimEAiOT5XgUFHh13jivdoeoPmVZWJ5DWhZGIZ/WGIRJ8LFZNpYw5JI9c5HPku2yiSnJZW7PLxSFsaNWz1w4AdrzGVWF3BStPnAYAMztOI262KxHWSNEgaS72HljcPgktyE5EoPuKxfMlMBJXLaCRpkU+4JeXAujaaVyQi0TGJZNIkJLrX07XaQBcrB7+1DUG+Cw3r21A1R8tWWuFudCQSXZswioTHA0okfAfKz+TpGyVmRtBWW5h2ew2md/pGkYhIjuS7Oi6fRuPRagR4PcuisS62Bh4OoFt6AKNkYhnbo2AgxeNLLj6UJNKIdrZoXdkw2NrR7eHBddVoaJL6YOXrV4kHlEhMK0uwTDJIYzSa/0O3wh3poPqOSnidJD11+1K++2026jZUIXYc3R3PCrex1IbZUjbb572TMLOmC124Ok4efgSa29bCzZJMOujerN8AL9OF2o4uNF14kTlHe+SKzBTL0JKIhoQK1+8q1N1rVsE3v4GeU6v4x436cajapt02CNNyAabw/RyZi2A8iWROLoEjrmwyy2iqLA7fT7g8ZplIXgNKJpaxDViRChVc0ljGe/PNE9HZU4k8jTXXSiJpD+jmOHhs/VDU1xe6fVWBDZG4vG4AXRvlpVbS5K3gK1WHFBDLWP26atSvqw2XDmDZpEoCujdDHhmM5EQtyKTzqVw0g1mG/Iq8dw5q6Q0xqUwiulgSTauvRawnD6szY+bbaIPxdGcPKi++wJzj6f6avMdrzcS6ASeSQnkMkWgeTZKkRcIzRDIU0/PJkEiyJJJOCzNJLCe94XB4yfBdhsslyrUZuPd0AKNkYhl9UGWSS8PPRDGCf+Mtw9HZm0BXl4VOGmq+NUJFQiJZdyhqqjQZjpVPwU/Tnai4AT8PEJmEgUTmpbwJjSg1W2nyc8PFzajMVdGl4HkdvC8NJNoeQf0qkkuNnkXPoAFtyueVee8sTM+LMVrCkIGP4XMX073JwerNw9+Qgbe+C362A8PuezOigxrDd2neq4iw8G7NtbuOf0ck+l2cChszbhuGGbkUptLtO5IEMo7vaXqHh2NuGQ03qd+K1xk3Vl3VA9kIHLAomVhGH0QCck341xCJjWTCwW131qB3SxwdOQtdrS462xLo2RTB3NcnC3uasFUz4xGYh7lu4Iikb6MqxTgIzbER9Dl9aS0iHQnYio9kSWZUJenOBFoWDS6QmsoRPouMt1T+O4pQpYnIWAYpDHMfB/Ej5yCZbYXV026IxF/fS2LrQuOGB5AYNcQQoHGFzPiTApEMELYlEqXJtVH8g25LJYnk9hbMoCLpIxI2CNNIJHPeMApuqkgkUiIFdbld/mW8AiUTy+iDiETTyouBRAszptWha0sjWjMkERpsD92anmwlNm2J4LTTJIVZkW21ZIQMixXZzN8wRtw/752DZs9GNA5Eg9FIHuq5MTu7VTuouZ4G2hU3g9GcNhrARp7f7iJ+YozPoBGxKhfLw2fRzNbt894ZiFy3JxKlRZvGItX2OBVJBpG2POIbNkObjFdmHoA/vMkoIkMeJJKBJBFh2xiJ0rTxu0ghjJHMeFMzZnRoiLxiJAHGdluY0uXh6CKR6LcuE8mOoGRiGX2QsWmau8ghPJ46uRKdm9PIsxXroAvRTdch35rAlrdEcO452t+EroeZx0KodTZEIhIZKCLxSCQkrIIi0chNKZLYsCSaHhgDbTuhIfFuhmUnkSRaY/AOkzsU8Fy6XXoWlkkzhgfCgEsRiRRGuvkwVG54DNbmHMmsA7ENW+B09yLW8QjSx0w3RGLcKyk4824LxDIACMvEfLchkgLJy7W5fRCJJMD0NgsTsr4ZJj+5y8Gs24bCrSwSiX77gpu6Xf5lvAIlE8voB43atG0PWr8j4no4/7w0ujclkMnZyNO16cgEyLb72PxEJc55nUZtauc+jTnR9VIAhYpZIu+dgUjJzD5Wnqb1D0zr648OkFxbb+IiIhGH8HttVN5OWT9IAc0EVUjSGLvZ3Jz5yOBK3WNHIQII1UWIKPMNvACVi6+AvykDL9sDb3037FwOwZOdqFm6lPfX4lCFa6iuPCoAraBWKv+dgfLWwklhLEj3Cke56n6DTq7ArO4YJvP3m9nqYxobhAlUcUfl02g5KZx0KcWm9xw2JtvmXcYrUDKxjCJorDI67WWjrScqYgEeemgk1UgUWbZkOVbEXNZDR6ePhx9LY2iTJsRVIaq9gWUgZr4NSUWfB4xMNJJV+7Tws7mHWlobFadWIp6rhkWl5FGy21rkeZOP9JW8P58hbleERCIlozEfzGMgiUQqxJSHiBsjtNB42dlIbs7Cas0jaO+GlWlD8FQP0ktX8BqRbEE1RGm4dHECKZtCnrsE/W5UFIolhUTCe9G1k3rT97XTkiSSJCZSuR21IYKj2m1DJDM3Bxh+frhrnhSbGR1bJpLXgpKJZfSDG2Fl9GS8CaSiPu6+twX57kgfkWTpSnR0RXDXPXWIUd5rJq4v18MYuaTxQBOJlIQUEj+be4Qu0+DXD0GsszIkkhzdFiKZiaJ5fq0hkgjLb5ZX5Ge5IX0LNr0i/x2HjHVbIgmDuZGpRyDe+rBZCNpt62CZMnA25tB4x5uRqBkaXqvniPB8EsmAKRIRiVSaIV0+ox0jnD4iaZiexOwuEgl/v1kbYpiloCuJZMbGGIYZ91REUhhmXyaS14KSiWX0g+2xZfI09iKGmO/gnvubSSR+P0XiINcRx5vvGYpkJAxoeoVJX6FaIGQsA0gkhkwKeZrBbnRxqufVINqbgE0ikWvj5TzUr61GYk4Y9NWweLkTJm5jXKKBM5C+XpcCkchgTVpjDeofuAcRs6J8Dk5eCx21YmjrBtSNm2KuNURClRS6NgNXptCV0SJUPNaMYxJVH5FMS+HojpQhkpkbEphJIjmC6mTGxgSJpOjalIlkB1AysYz+cLXGKMmEFX3k8BQeWVuHXJdDIgn6iKSjtxp33TsBcV+VN4DrsgIa4lALG87xKJn3ToHyX9sm0GCVr+DX+6i8oQp+L90V+vt2hoaZ8TH4rkFwh6j8PMeWK6Ny0TAMyQ0c+ohEJMXnVixCBuzV1WH0Xfcg2pozPTZWph1uRwY17a2IjpsYnqPrSCSatGe2qtDxACB0/4pEEuE70MLO4XeDplfhhO5aTMi5mLEhhRkiEiqS6STiIedovInKJddGrlaZSF4DSiaWUYAZCekp3hFWpnPPHYKeJxrRztYrm4mERJKzkeutw+lnNtGgaAy8xkxhN0QiA9PI1lfmvbMw+fEeUhnGSIiKCZVo2NAYzq/J22ZkazQbx6BVJJJKtaw6V88gwxAR8bpC+XYVejZDJCqTem5IUrqf3oHtR9F4yZVImJXScnCzdG0yGUSpSiInnsDrpEKYj56F54dlfOU9dgZSE9pdz7wjKkTHd5HgM+uelWMTmPV4BSblfRJJEtOp4DRMfuaWJAafI3e0SCQDV54DHCUTy+gDjcGNwQ0kcS2cdU4Tup+sLhBJNIyRaAbwlsGYWtiU26MxmY22CgZb7IocKDLR2hqG2OQO8FhG7B8ZQayNLWkP07QqWruFVGcFqk4L9yaWUYSukMoxsKpEhqrAr3lmrcWqZ2beZoFnpg8+/kw09WwkkbRTJWXpduUQbOlEzU3XGXfLuBtytXhdkRgHAiJ1jbkxrpP2cebvkmB6VO5d3MaY6yOY0h1gemsc00gkh3fStdkSxbDL+B5ZHkOG/fIr41VRMrGMPtAA3bjZclPHZ55Th563VBSIJBYqEiqA/OYWTJ1RT3nuw6UBOXJtFBsx7oeIhPm8Iu+dgyGlApGoNReSZ1ci0suWtJsGbBSJg4qOSlTMrqRBhQtDG7fDqAW2znKNdNwv351FKSIxCoP5a0nIxIiJSD/yKKyNebht7fDbcrA3ZZG67QYadYIokI/QL99dhQn26t2LMOlyikgUBI5bKR77mHhTFabQFZzeGsM0KrjDu8IFjo6/6xAka5IhkQwQ2R4EKJlYRh9oHE4MXuAiiHhYuLQF2Y0RtHfYIZFkLfRudHHD7ZXwI5oK7yESE/kUhsj3EYncm7CF3lVIgRjjCEIDVos+aOUIBJtiZvsJl2rE7QgQ3Mf7D1ULHEdKm3qJOAiNsnU0D2iAjCQkEpKXmYRXIBLeJxI4NNoAdrQJiTvvgrVJm2W1IZLthPVkB6Jvuo4kGDPGvvuIpPCu1BCQSBQjiVsVLGeA8deKSDxMa9c4kq1EcuqDY5BqDHtuBuodHQQomVhGH1TJRQoW6uoqsLZtKlrZ6rfTn85mPeTbEtjUG8XyNcPMOaYVDmy4ZmatVIn+Ss3ob6n8dxwaGxEEUTP2QuM15EJUXVsLt4sE1kFkHMQyPga9sR5WDcvD8idtzQFiOTSsXt2/kvwklIEIJIogVSajSMwYlZAUtHCR2QkwVo3GZctRQTXi5Dpg5zvMgkcNjz+AqsOOYB4kIRq61lMxa4iUuMeOQy6cnrHw7kWcdOe0hUhgVoi3cdTiUZjRlcAEkodwBJXc9LyHE+8bjFgz3R/mI2IruzevCSUTy+iDDC0kgfraNB5ZOw7tbPUNkeQd5FsrsLE3iWtvnmxaVZeG6qrVVwzCGKowUMYRQr1CvhuBnVQMgORV6SB5e4pEwvu2U4XkAqRbA1SdR18/ze/pxsSpSszcExFJhGDaQG2QFSouGSqfU0RiemAss1iRpzlHTgTVRx2FIe1ZEghJpKMLdlsGLZ3taDzx2DAPj9fS2AduuQW9fxF5QRmK0MzSCSHZi+hGzKnBzFyl2ddmPN/dkTkXMzMBTnygGbHBumZgXdIDHCUTy+hDfyJJ4dH1o5HpKRKJ9rKJobsrhdPOHGTOcRQbkDsjo+ojkl1v9ftDAUrPkctAg+Vx1aRq1Kyl+mCZLJKbtp9oaqtCxYy0MWoRT8pKh629DN0QiXokNGx8NxAJ34HiNgmme8a9i6J68lQMam1lGUkkGlOSzSPV04bU8drnhuerx0cY0HdV/O30W0jx0PXUiF4RCb9Pj4xiVqYaEwoujYhkOpWcIZKWIpFI2ZTKu4ztUDKxjD5sJZLq6iiJpAVZEknGEAmRc9DV1YiRozRLtEgiasV2jxoR1KUpdyV0USzUzKlFTaYOFo1Bo1qdThsNd1cjrjKxPCKeJInELD1AIzLG3lfGgTBcGZuIhO9JZeI9TQCY6VFb4zdYjlQlUjdeD7u3F057N9xsJ+yNrQjmXWQWWUrzfE/xFZVvm7wHAnrG8DnlchYDqNWjkpjdWo9JIhH+noZIsj5OeLCxQCQhUZeJ5DWhZGIZ2yCshIeOqcT6TAOyNFZDIqx8uS4Pjz46DINbNIgpNChbA7/M7F9J65CETABymzx3Hhq6HQ7BD/NOH1+Binw4NF7dv5HeKGqX8piEobiFZvzGzPB4EofKIWM1rpfKFz7broOEKUWi3iTeQ4FOKZIY34Pnh4th16y8GsHGXnhtXfBaqUyeyKLqodsQS1aghuf7IpJgoMpDbPfOzbgW89zhPSqGp3BC21CzAPQEku8RWQ/Tcx5OeKgesSFlItlBlEwsoz8KFXL+wkPRs7kGebZgmYxtlhHo2RLDFa8P94zd6pML+txPjQwgkWhMSLhjfqhKEufGEc8n4ZBERCbR9gTix0V5bkhsGiau841ro3IYFCX/1nx3DcxPecpQmb8MUD1KmjtTdJ8SJ52IeNs6+K05+BtIJE/mEX1M+9zUoJpl9aVmCipr90Ekouf24CZdTLy5DjPzPibTJTwiF2BGh4/jHqolkeg3DJVVmUheE0omltEffUQy2Oztq1XRsm0O2vm356k05l01unBukURUUbdrWQeQSGSkmoxmunGrbdTcWIUgQyLROq1USTUbKM1HiUhC90WGLF9/62AvGXYR2+a90ygSVOFY9zLjMApQWnzYCAza8BgimSzRC2tLJ4J1d8OtH0z14tK14XkDSiSlnrFIJKHiGLOoGidsSmKSVEk+YtTJcY+UiWQnUDKxjP7oI5I6EomPDla2zkwE7fSnMxvTOOmkwoZY/45AtjOyXYVGaoazWuk2NLhovqcefnsKznoXbleA5K0klkbtT1yYW6OYgMDrFBg1aYJRJdvmvdMoPGN/4th6zxBBZS1q33g9go42+OvCzcXj3a2oP+FUPotDIpHC2u797TT0bCILEcL2eeo7prNsYxdU49hOEknGIZEEZrnFYx+p3oZIthJwGa+Ckoll9IeMhH8XLNRyii466NZ0tCWQ60jgYf5tqCvhIhQMqw/bf78LUNelJuC5FlVHnYWqu9KIZisQaYsi0h1HcEXc3FNE0xcAVYDV9FZInchIdgOR8G/Yy8F85eLovorHkFCKsYbU3PMR35xFVK5NewdSmzsw+IKLea3GdrBchbjPrkO/iQLgIpNCnn2/g4hFZGph/MIGnNRdbYjkiJyPaZ1uSCRDQyKRe1YmkteEkokHBMJuyVDSl0LYcqrSC8VripDBFQKnZrh7FPPmV2Hz5gD5DQE62+Po7o3hXla6qgoFE8OKuUdAw9RMVpWxekYF0o9Xw817premaW0lhp4+JDRkY0zh+UV1EOYhwxIGqvXfHsxX9+p3X71TvfPac09FZb4dQdtGWLlepDblUXP2GTxH75lGr2DtNnntLPR8+k309999b6H+yCROeSCJ6VkHh3dEcGSXhTmPVSA2WMFyLU3Z3yUs41VQMvGAgORyiG0JpAi17GHLLGy9TgSkZQi1dofWOdV6JJLCV86rwZYtAXraI1QkATp6fJx/qXpr1HopJrE1j90KtfIFF6D5nEakOhpM16/zFguj7qhCvJZGMGAuwsDCG96Chkcfg5PZTNdmI6K9GaQvP5fPVPgdzIjg0tfuDkQrPJxxdyVm5VyM6QgwvsfC7MfTiA2SmtGG62UieY0omXhAQC12GBMIW8TtEZKHWi0SwXYyPyQgxSHYqrNVTaU83HxLDXp6bHRrV702B5ufrMXpZzXxfBltKIX3CExLHxJF7bm1iHbWmjk26rUZdHUKXpzPtI8SSaS+DsMeehh2vpfk1wu7Yx2a77oJ8Zp6/iYscz9C3xOINfg49b46TGm3cWjexQT+vrOlSFqkSMK1TExdKeM/oWTiAYGQSLYlj/4IzysQyXaB0vCcwt4o/Dz+8CqSyEizx29XxsLGrgCPPFqHxgZdz2uMK1HMc/dCldssBkSkL6qA31tpFElqs4fUqSI/kqemzRfO2VdgNhj3AkQvvQLuRhJJrpPlbkVD671INrWY5yp13e6EHaOKmxfFnJ4EJnZHMSFn4bhHqwoD0lgn9jCx7ccomXhAIhyM1P+zoDiIjE6K5JVkIEKRYR52aAyd+ZHItkXRycrW1RHHgw+ORZQGq2HXe7LCaTlCTb13eN/EghSNMkWD9FG1IYaao7Re7NaxG/sSzKhS/k2d/DrEtnRRleRhdWeQyNyPoHGwCcjuWTIJf7cx59XgxI4KTM56mMlG4uQHGhAvTNp7LYrklfUq/Kwh+f3T+393AKJk4gEJs9qZZn7ahZmm9Mv1Y3uejsMfevsfWyTjWFGMG5NAPn8E8rm0GdXa1d2A188dBp/X+lGeJ3ej33W7E1pLVCucxxp9VD9cBavDg9eRQv1t1XAq1aNTJMfS1+8taMatlFT08CMQe/w+s1KaVk2L5B+DO3qsIRJvDxpbcYLgiFOrcHJrHaZnA8zOBTj5nmbEmtV9zrKqzvS7xlxXqCeqO0Xo2HXD+TzF87yCKlS6sH3dOsBQMvHAgFRCEUZt8Ac3BBLhX62r6iPwHcI1G1r7Uhemh4aVQT+6uU7HUYwdl0am8wi0Uom0dlno3jgSUycpPsIKQyIJz90z0EJFHssVDPaQXB+ji2Ah3l6NqisqYAcimph5vlLX7k0oaG1WLEsk0XTXG5HQBL7OLgS9OdRddKF5hyKTUtfuDmjKgFmSYbCL2Q80YnJngCMyAY6+fxhiQ0JFElOjY+rO1uuKRCJy6J9eCkVyOcBJRCiZeGCgSCLGyPXj+/xhowb9z4v4/MGpKHxfCkXEoQrCv5o7UgjCjjoigYc7mvFoj411myzcckcdklGN5WDLpHVK9yCRmO0trADeUAfRNhpDzkFtazOCaVEah4bPp6GFe0pfuxfha90SGmDgo2HpVUhLkbR3ItbTheYVi8w5e5JINCtayytoOYax19Vj9OYYhvWkcPhDhyAYqQC8hUCTDku4iSKHWCyGp556Cs8//zy+9e1v4/vf/775/Nxz38RXvvIM3nznnX0kUsT2+RxAKJl4YKA/kehHNOtRyAhtrL72Frz9be/AbbeuRlRriPAcqZJQ7ir4KkPUX11nYeJJNXjb58Ziy6cCvPUzAZZeG44d8egq+aZ7uHDPPYKwR8EdbiPIuEjkXKTfWAlniFr8CN2DalgRnqPnLnn9XoJHIilI/9jsGajv6oSX6UG8qxfVKxeYQXN7kkgiVJpJrZbmWkidE8H4Tw/F2E8dhpnvPAVVM2oLkx7DqQb9r5PK8H01Si7OPPNMLFq0CPMXLMDChQsxf/483HfffdC/DRvWm/NFJnJz3MKzH6AombjfQ3LUbG2gblIzqpMtQkHuz5p1Kv7493+aH/srn30Kaf3QPFfBS1drdfAax2YF0xoecQcnXF6PmzJDsPGZerzjuz7e9+0W3PTYINQ2hQsDmW7L7e5fCholqVXDpGDUe6FxCkefchbasllksx149IF7MG5YONzeZlm0Gr0ZW+HRxyYRqnzq+ZBrI9UUjLJRuZYk0hGgdmUNrCSv82Pw3Qr4VFP/KUi4p+GTqOOuJg/GEGkZivp7b0W8LYtk91tQu2gprBjfY7+5NsVAd7i4UEElmmcXSYYkr/hFGBDVb8D3SoiMDCEVGxC9w8L76PuO52l5hRjhT6xC3ZNTMPy5KTjsuWkY9bFZGNx2NGrPPRRWVL+B8iiWS8pCytXnb6HyFNO34qY71+Eff/4VZk3n9Tz22HgZpat8tjv3AELJxP0eZu4GK57pUYkSbKEdJ0WfN4mvfv5ZvPUjn8Qnvv5f+OonM6hlJTX70KoSS52YVc60SVISE0+uwS2bqrF0g48HPmXhiR/7WPvpGqzJRnHcZZ4xeBNofQ2tf4KEFRORaHHooBJ3rtuM3/7lj/jIxz+Id7z9PfjFL1/EL3703zh19niTX5TE52gPYdMC0tcOwvkoJo7DsjafW4G6thTdmwRqLqyBQ4luR2ioPg3E9NyULsfegMoS4TNpDdfAquQzRdC0mu5NRwaRHIlk5R3wGuqMOghdy3DkrsbxhOvdhmmhy0mV4GjAWBgIFTGERKLzRBAhaZsBh1peUg2IjL+Qrvkzykcjl2PpKGrvPBbWOyeh6qszMeZbR6PqI4fB6hyDoW2nITW5OLNbkKIoli28XgMX1QhpUWmdkxo2DT/6DfDZ9/ciYgYOikj4OxaIb2teBxxKJh4AYAVkZY2xMpkWyNO2DCncuOY6/P1XP8To8ZPw9i99Bc9+Zj1qeY4jX1kVjoauNVBFDskaDwvurMPVXTauXOfikS/EsfFHcVz7hIVVnRaW3E/3IkmDlWRVpX1FGbZFlJU5IBmoQo6eej7+QkXU+sANfd8PGTcHv/vzX/ChnnWU3ayAPF8LA6mXxmaZ3AgJL2CFjNMYxleg4a5JiL79ECTWD4E9mG4DWzxfPj3PEcH1v/e+AI+GZVSWSIDEXn/ZuYjlW2HlnsLgDW9BxbjJNFCeYwxUvSZF95LGq/dbhHnfoWHq/JAw9bx6t6FKUe+QSZcK0Bye7YgknLhIAjgshdQjR8HaPAHx903D+P86C5Xvmgorfygqu49G5XlDw3sqr0L+RUgtmX2M+F3EuC0u5r/xQaN05559nElXr55+C8flb6KYm8nngETJxP0f+mE9hz4wDdhUmgbUHzIHv3/5J3hg1YU89vC+rz+Pr372MdSwotjq6aC/7NhpEgN/fKZVDvawel0Si/IO5rVVY+UTCdzwbp/HFlaSSObdmaTro56eKuYXuk2vBrN9pJHuPmacfLWpcNdeepz5zlT69GH4/s9+hy8+kUOKx1o/JEEf3eyHa1wuGkh9Gk1XnoTKRy9BzSevQsXzV6H+HWfDOyRlekTSnrZaYEUn2bwWctujUAzE1+8ihcDfZfQwVHSuZ+u/CVW5LUgfNtkYeozGaRaT1js1CzhJVfB6QjOfQ1emf95FEikiJBOjPPQO5IIQukbGLYRukoVD5o1HXdfxsDomwO2ZjIpNM+F0Hgmr+wjYXRMx+O4Z8GIFNdH/ffKz8hPC8gSIV0/C1378U3zt6+9GJVVtmtfERIQR3lsBeVPOfnkcWCiZuP9DFY8VN8oWybUUGB2Cnnd/Gj/49tNooC9u+zX40Dd/hGc/14pqU0GoLGxtQVABtxBLqagPcN1jw7G0M4X5+Wq8PutjbtYyRHJNZ0C10gI/LomtjbFeC5HQLdEKYGyZ0vWsdN95Hi/84PM4fso4RCIx3LZuC/7F/1edeowhEikY3yXBaTyC4gckiIYzZ2JY7gbYmbmIfmYFgu+sQfQDCzDo1ksQHzaSz0BXSDEhYbv773VI6is+RKlvWutUApVvuBrWEz2oyOdQefh4o8TkJohQjBKRmlBrbrrlt+al68M4iIhDLb1+PxmqjsNz+uIhpvctvF7HMvwwbxr70TWo33A87M4ZJLQJsLLj+Jckkp+EZO9xqLjyEN67SFBhvoZEVL8MSRXyoto98fLbTeOweukp5rwqklWV3DAvabrl+64/MFEycf8Hf+Agph9cBl6JU89ajpde+h1mTx1bOCeFj37teTzzqc6w5SKMwcqVUEV3tdCOj3FHVWJ5tgELOx0s7KU7s5FEQjK5vnMQzlg4HF6Cleg1dv9GWBllANo6UrvjDxk1BR94+lP4J/6E//fjF/Dtb38bp72OrSPPqaGLFVcFFVHFJc1peEPSGHrXfMQ2LGFFfz3iT1+P2JfoGvVegVTH9Wi5+kpYybhptRWP2P7+exuhUfumS7Wy0DrXXHIO/Lf0oKZ9A1KHjTFGHiXh6BnUitsBXZyA70CxIn43ecqxuHrJIoxprIJnVIoUS4xKL+jrFRlBZbNsyTJMHNmCgOcoOCrykgtaVBDG+EkQWoF/yOrZqMwfw3d6GOyOUXDyhyPVdjQG3X0K3EPUCPUjKJWLeZoFpPnX5e+kOuMGY/C+L30Pv/nVsxg3KNzyM8XrKkxguBaWXFqV19z7gETJxP0e4bgQfQ4QpA7B15/7Cb7/zf/G+We9DmedfSZOu2wRnvnRT/H8Nz6FueedhREjBtHAVXkd+JTSWlzZtapZ2VwcP68JK9qacW1vJVbm47ihYwROWzAKXorEECNM3OOVZdgeUeaV8Fnhzfk2Wg49Bu/4xGfw7R//AM9+5dv4w+9+g/vvXY2KijhiLH+lx9YsScRDA4gOr0T940vh5ZbAzc1F4pM3wXvnUlhd80gm16LqTQthVwSGGLU1pa4pVY69BY0hsWn06impKqRFxhyB9IZuDG99C5JjpjBNBq9gqgLZii/oXdFFTdfi0ccz+Mvf/2Va/dMmjwqfzyNxxvg7UXUEvo833v4m/OpPfzLnLDz3JHMPl9/5EaoC/tU15jrTIyZyclA1vgmH3EbiyE1DTXY8GttnYPSdJyE+vrGghBSvCX8D02AUoJ4YjU2SmzT9+CXmnhvuXWHevzacV6MRNzEerZ9LwpEiUx4HJkom7vdQ371Grjo03urmoXj/Rz+J733vefzkB9/FC//zIzz3ws/x87/9DX/90y/ws5/+Dy674nTTwmhxHW2iFOF1tiqAWjwSTP0hEYyensLwKTGMmlqDSLVWRycp0PUI/BTPlbwtXZYiApYnGqiFom8+diJ+8suX8OGPvR81DQoEp3Hb7feyKv4ZT75lPdK+hwTPt2I0qggNgdfHh1ajft0y+u5L2WpShXz+VrjvoWuQnwe362o0vmkenAq2jjzXV2Xvd+99Aab1ptFFrRih98X3VzcZddc9hYZbPob0694Ie9RZcFKT+I4aCKkBvquRw/Dsf38DP/zJz/HEBz6Lv738Ik4f32IM2/ZJEG4c1TX1+NhHPohfv/R7dL37Y/jjX/+Cq06fY85Rw+CYQYgFwjdEEJbFgG6H1+LTzalF42WjkDq+DolRadPlngzo6rKcYRd08Vre17hUylO9e5XY+N7PAX//NY4/fIh5/+EiTWyQeJ1Zt1YkUlYk+yHoOlh+LSKBR/CHjdDwnSpUsUWsYgVxEjV47ze/i688/W7UsLUwasSMbE2bPWMkicOxG6o0xXzlJikmwkros4JEPQQRn/mTSAo++KtB4yfC9TZ83Nf6Vvz1/36HsY1xExcIeyeiuL87j3/97QXMaBkcXudHDSkqbuDRxYndeC6sjVQk71iK+Pfuh/+Ra+BkrkBjdjmqL5xlAsxqDU0LWLjvvgITJ+A7DVtxtvKJFrjjr0L6jPeicsUPEV3+ZfizH0HlkTfAjk6n4dbyndkYO2IoVq9ZiXi6Gidesgz//Mtvce6RhUl+AQ2ZRFLfOBjXrV6FpqZBOHTWGfjjP/6OJWceawg4oiUcjWEXfqMikdB1CkjS2gZDm5oZQ48wnb+5esBSbExShgjUixR2NRsy0X1ZR8IgewUmTj3LqJFPvLXVKC31FJoGyK0wDZkC/uG+P3ru8PoDECUTDwDoh9ReLoV4gfGfE+YHNVH7eC0+9/9+jue+9jHE1cIwTV10GmsS0Hjlf5sWT74wv1cPim1aH/XqsFIw3WyGJZiWtv+9S8NxeP+IWjEfGza+D3/+028wfpjUSPEcHw/3dgN/eQGzBg8yhuKaEZE24qyQqsjBjFGoWj8PTZ+5GVXfvwvJr9+O+sxVOPTmSxBpqTYtp0eJP6DbOgwQzMbn6rUS+C5ih14If/oj8Ka8FZXLvgP3ik/CmtGO2LT1iB2yguQ+wux5Y2IrBZy78Gb8459/wpnjh4RGra0u6N70D4ZOPfkSyLlZdMYc885cR+qR56kO6Lc2EKGRHEgiUm8x/r4RujpmQW3WkTjrQozniOTNNAi5ZYX8RewiElv7KbOeHXPcOchmM5hx2EhT31S/QkUiteSY/YbDPYTKRLLfQT+6KqB+1OKPa1oUuiMWZa6XaMbj+V48+tid4RB5EoeGuofKovijE+Z4YIzSIUFZ2rOXn0879wL8g5X9q9/4Bs696BKcfd75eHDtevyd/7Pr7kIdK6taN9NSSjGxUgem8vNZxsTR1HU+6j+3AunPr0TFvCnwG5KmxdN+Nxrur2Dg9vffmwgHisXMoDpb6k/77IxaAXvqk7AmbUbsivfBPSUPa2aead1ITn0IfiVdHBq4Z1wIKUELZ1z1RvzzH3/GGUcMDfOW+ycloXhF4XeadMJF+APf7ZKzZpl6YFt6N3JTScY819M7NOSg33hXf9ttry+SzUGIkokHBPSjmhapCNOS0H0J2DrR9y1Wgm0n7cl3F3lIigpbW7pdheOxxQtiCGIJ02LNPvYEfORjn8D/vvAC8VN89/kfYMnKxaipShoSqSBc9QixBZcqEZGoNyOYVIX42mPgdJ4A67GjYI1iGUkcUbbMGjMjBbavVWgZedSq5DsIQjeSRBI9ZCncqZthHbEJzpnvhXvae2BN3wJrwkakJz8Mr2KiudbsWVxQfWctuA7/+sefSCRDwrz5mxrXU0HRwjmTTri4j0jC31+LYVNNKtjK31l1IZyIJ1d1WyIoY6dRMvEAgSpJWFGMQqF7oOHlLg3a8eNwadT+v1tGQNepggrb5LnzUK+Bx3v76s40ZKV0GYJv0sPYAQmHlb2apKEtL03PBQlOPnukQGqJU1qQztP/b5+J2Lpj4QzWEGxtkekjTePQGIx9TZHofQZWDZ+RqoRldagwYqMuhTe1FdbkJxBc+CUE534F1sQnEZnUi9ToW6nEhvO34rn6DaQ6mM85C1YCIpIjQ0Vi8tL3UppyJ5gmRfJHQyRHhUSiQW0K3PL9b/1N9f7Va1MmkgFCycQDA6o4RVLg8dbp3FQmhlQItmgaxvzvFjYaSCIxs0BZ2T3K8eJflS3sWgx7fWwRW8RDimXUgDRLBEMjifIcMwyb5Ymc0oh091GIZ6Yh8fB0uA2+8cMrSCJJugHhpMDSZdh70HOqCzZqXC+Xz+dWTUB0yq0IjtmC2CXPIHLxN+HN6EXFkQ/wu4v4rFXmOYziKBDJefNWk0j+gtMmDDPHim+YHirN6tYew0ybfMKF+LOI5OzZBSLRe1NvWfj+QvDdm+7fMpEMEEomHhhQxTFEUkSBUAj5yWEQjy2+iYNs/X53QfLeIblpEpprfHoSWuE4JBOWQYRGowl4rlY6C4d2u2bYuDGKtI+6G6bD756CSHYiKh6ciqA+YoKCcmuM3695Nvsgkehdh5MpQ3Kw3SS8ltchfsJ6JOd+DrH5X0XqlMcQ1JzK93BYSKJSJMbdDPM58+I1wF/+gqNHFxaVIuJSX3JXCypv/FGvw1/+9S/MPXl633W2V5zronLwPRsiCYm8eE4Zu4SSiQcQVFEKlceAFZMoBmDDyqcKVaxk4XUiGxl+MYA3EAjz7A/l3/8z72VUkcaNiBRYNqoQdeeayD+Nz6v1UX33MbC6J8PPTkbFwzPgNWjAlPIQ8YhIeL99jkgIGrwI3Ax/lypQTMNrQjDjWlQu+hiCxR9BMPUynqupClX8ju+C18RjVZg0aTYxCbfckQH+Dqy8/DxzfNiIoWYkrBtN47DJs0zaghXXQcPW7r12GY8nYszY0ab3S4QcknZI0GFPXr/ylbErKJm430OGVQyy6vNWIgmNVySyDZEY9bL1erWc4XYU+n7gyKSkq6S0IngvVXYz41flpZuiQKshEhqMMyJA4oGjSSRUJdlpSD80i0Qiia7rC0QiN6DgCuwz0LP5JBEarwajhcRH1AxBxSX3ID53C7xVb4N9xKzCNdG+Zxg7Zga+/d0X8Nvf/Q4/+9Xv8KtfvIjf/PwneOmll5Bf97A5p7JpKD72X1/H73jOi7/6NX7x4m/w25/qnN/i7e9+Czy6i3q34cxivSf+pvvaO9q/UTJxv4dUh+S+lIc+hyRSjJlsJZm+Lt4+Q1YF10Q/VTiNEtXYgm1JZqdRvMerwdxbyyVKmYSVXcHEqL4jkVScOgIVmdfBys9EpO0oVD44ZyuR0F3S84gg9dwhge4jUPlJJFoWQb03mi2rcjqpetRcfheSV/XAXdMNa/x483tpYzJD4HaAIGhBTe0I1DXXoKahFvU11Wisq0d9wyDUp5PGtXFilahoHI7mhno01dWhtrqRf+vR0FiHyroKuEFIzAHfjyFpladMJAOJkon7PYqqY6siEUQIobpQWkgwJJf+QbjCd6p0oSKhb124ZpdRvMergffSkGoRgY41fkRBWl9BRxpM42VHINZ9EiyqkVjrbFQ9cBy8+qIiEVF65lq5D/sckVBZeSSSiJVgGTXs3EZk8BGonf8QgrlZONfkETvmZDiu3DqSeOF5XFeD9vS5f55bf8cICcE2MRKRz9Zz+v9uZgEqHoeKJFSl4fsuY4BQMrGMvQQZl1kgmZVcQVeNuHS8GKyolBON5oIRcJ44Gnb+SKNI0g+eSCIJB7mFxhWS4j5FIgYyXik/x8RJwhXFoqg89vWovjqP6PxOOEs7UDP3JripBkMkJpYi1UCYVfOVh45JqP/uHqXTy9gDKJlYxl6ClJAUiSESQvEER7NhPRdBykft6kmwNs7oRyQn9CMSkQiNiddtn+/eh2I/2xNJDBXHXYnUsiyCq/JwVnQhfen1JJKmrUQi0iAUfNYyDK9OJGXsRZRMLGOvQd2jrnHJRAjy5x0NqOJxxeA0xjzyOljdU/ZrIhFJhhMVE0jMmYvk8jx8Eom9LI+Ky64jkTSWiWT/Q8nEMvYaFJvR/JKtx2bEq1rxoQkMevC4/ZZIFMDWYEARiXm+oBaJ01fAX9SO2JJeuEtzqLpciqRMJPshSiaWsdeg3oVw/RET59A4EtMbQ2MaGUXlo0fD6p0CJ3/Efkck6jHRCOLi8P2g7hDULb4X7pIM/IVdcJaJSMqKZD9FycQy9hZsdU26RvorlqAuUw1IE6mkThqMdE6D0Y4kkexviiR007SReLHbNdIwBhWL7oG1JAtvPomEiqSm7NrsryiZWMbegiESrSIWrpOh1eO1wJJiJs0LpiDePYdEcsR+RySmm1Yum+v2jbr16scisfh+WCQQb353mUj2b5RMLGNvQW6MrUl4WjaAxzESCY1Hrk7tgolwu2fB6tk/iUQTD7WvjWNWSnMQH3MU4ksfJJF0kEh6y0Syf6NkYhl7CxqERYg4iorEd8NNmBILD4e3ha6N2S4hJJKKB/Yn18Yxe/+a9UvdGBpPuQqx5Wvp2lCRLOgoEEk52LqfomRiGXsJcmG0Honm2JgJZmy5NRDLSjD9ehJIzzGwOxRsPRIxEknV/SfBr42aFl+D2QyZ9Mtv34FG6AaI0bUxsR+vEhWnXYNgGUlk4Xr4C9fBXtaJqstvKRPJ/omSiWXsJZj5JwUi0fBwDevWUP7YoWmkHz8JVtcxcPOTtxIJFclWIhGJ6LpX5rv3oVGp2iqDLpuWtPSqUHHG9QiW060hkXgLH4e9tAtVl5aJZD9FycQy9hJECOGEsq1EovTKw+tRkzkdVm4mrEzYa7O/EYmeR0QZeHTfIrWIve5aeMu64C7cQCKhIiGRVJeJZH9FycQy9iZEJIp19COS5JG1qMicAqtjFklk4n5LJFp31oyRqRyK6Hm3wSF5OIvajCqRa1N96c1lItk/UTKxjL0FGopZPaxgeEXXxp9ciWjrsXA6Z8DOHQGvYwISmaNRcd9x8Gq11MH+QiRhHCg6dAJqFq2Dtbgb9qIMvEUkkqV51FxWJpL9FCUTy9hboKFoCLl6ONR7EwZQqUguPATR/PF0bSaRTI6A0z4OkQ0zUalem1pNyd8fiCTsjdJxfPhkVC1qJZH0wlqU3Uokl2r2b5lI9kOUTCxjb0FGY1ZEc0kqGi5PdcK0wTcdh6BLRDIBTsfh8KhKwl6bExCpj+0HikQqq7DOChEbPhUVdGmsJZtIJh0mTmJrGYEykeyvKJlYxt6CR6NxbSQMkWgCHwkisFBzw1Gw8kfRrTkSdn6scW8i62eg+pGT4DWGCxvt+0RSiI8QsRFTkV6cIZFsIZF0GiIx65GUiWR/RcnEMvYWZDRUJDEajpaAFJHYMQvpG6bD7T4aTn4CieRwEskExLLHILbkMFjR0DjDJSH3XSLRsxhyIKLDpyNpiGRzgUhazaS92ktuhJts4rMUiETEIXeP70NkYoLQSivkU8Y+g5KJZewlhC6KVhPTerHhXsVW2kL1zdPgdc2Cm58Ep208rOxkJDpPQMWpQwvX8Hpt20BD03GpvPc21PUbujYpeKNPQmTJOljLOuEs7IS/oB328lY0XHw9vLg2UA+JxExeNNdoBrRG8Ep96fO2eZex11EysYy9hDBoKlURpdGJSEgO1RYSN0yA3zubBHIkgsxE/p2CJImk6pRhhjjMQkiaEFeYKVwq770NjWg1u/rbtag7eQmiy9eTSPJUI50IFmQLRHIDvMQQPkfUPNO2RCIS0SJPfM5CnmXsMyiZWMZewlYikSLRbvcW4kdWo/7h4+HkpsHtnAyv9UhYuQKRnNqfSNTTs+8Sibq1XZKA5zZg2HnXwV+yFtZyEskCEsn8kEjqRSTJoXyWuDnfjPQ118ttE5nsu67bQY6SiWXsJYREos9qecPJeHWzh6Bp/Ukkj8nwO6fAa5uwXxKJBtq5ivuQSJrOWAV/KV2bpR0kkm4SSQ7OsjbUXUIiSVGRaMFrN3T1wgF6IpJC8Ll/nmXsKyiZWMZeQmgoanX9AizUHj0YDa0nwO6cRlUyEX7bRNgkklTXiah53fC+6/Z5IlGQVOut+E2oO30lvKV0bTSydUEPiSRPImlHw6XXU5E0h0TiFVZTM9fp2cLBeWUi2SdRMrGMvQQZiRnVqk27CkHFyjlNqG07DlbvdDgdk+Gu11ybqSbYWnlKv2Drvu7amHVISCRuI5rPuR6R5e39iKQDzpIMBpFI/ES9eX7PpwJxNdmv8D7KRLIvo2RiGXsJfUSiBY5ML4yFquMGoTYXDkZz6d4E7VpGYCpimTmopiKRW+OZbtF9XJFIXbg+FckgDD7vJkTpyhgiWSgi6aRCyaLmtIVw4xU834ZHJRKShtwaqTON9C0TyT6Kkoll7CVsQyRaSoBEUnlMI+qoPqwuqhG6N37bJFhtE5DuPRl1Zx3Sd90+79qYzc1JCH4z6s9cDX9FBtayXiqSjYhc1YlgBclk/EnmXD2Pun/N4k6ml4aujhVheqhKXpF3GXsbJRPL2EswJGDUhRQJj6MWmq86HMm2WXRtpsKma+O1k1A6piH2+Cw4h8fN+iXGuIwi2YcNzSdIdInBE1F32Z2wl1KRLOuCvbAXfoFIIuOON+XXeJMYSSQcdyIiCceQqDu8TCT7JP5/e2cCZkV15v1ab92t+/bO2oDsi9LQdDcgyC6KCCIKCiICvdEsArKIiLiA4IKgCPS+sEky0YxGE2OiM0mMMWacMcvMJJmsk3xJNI7JN9ld/9/7P3Vvd9NUjMyo997+iuf5P33rrXNqo95fve85p055Gn0lS6qHgpGIO1bCzLLQ4+5psBsFJI0SiYjM+mLYzROQsaMMhoCGk0PzExYECbtMXUeTbXTebiqIYJS/GaNnIbT2JLTKZkltHnb/VjXBXteC0IipqizL8Tzc6IrnwvSG0VbqDrj7/1yeRl9JFZ3GbWg1YxZieybDbJwIvYEgKYEuIDFbJiDz1omwbUYg8fLtIKGz0ea17SRKgMf2nOAFs2Cu/TtoFW0CkocEJE3ytxGBTiDxlXbyNPpKkvi0dSHQAZKs3ZMlIpkIQwDCbl+CRGsdj+htE2EGEk9rFySGgMRKVZDIcbkgmQlr7Sd9kHQveRp9JUkM5zmMXH25n787gcSqk0ikLg6SYxMQ2SVwcdIIJPGIJCQRiQuSVh8k3UeeRl9JkikQ4Bfp2kGSbSFTUhsrARJ2/TaMg3Z8IkK3TVAgMQx2jfog8ZVUeRp9JUmEQIAgIRw4sjPbRPTuyTCaJI1h24hEJGb9OOgt45F5+yRYDj/KTei4IEmHNhIfJN1SnkZfSZLq+hQw6LqAhNFFoYPIfRdBE5CwsVWvL0GgthhO8wQENxYhYLOL1JJIRMobApA4SNx0x3sfyZPfRtKN5Wn0lSSZOl9MM6GZfGlPQ9+ZQ5FTd6mAZLzb/StpTejoOMSaLoR+aa4atBXiV/7jEQnhowa0pXBE8tdB0iogmeZd11eqy9PoK0ky6GwcRs4RoIaGwktHIrtpDrTmMoGJCxKndhxyGyStmZan5uuICEgsFcEIQFIcJIy4gucztfmEgKRFAHLIBUl1I4LrmhH2I5J0lafRV7IkzqYbpgIKQZK3YCgym6YLRDh1QJEaR6I1lSC7djIyxuepOUwtgY6lm2ruDndAGwezuY21qSR1fEYI0ckrEKpphVZ+FFqVqLIFdlUjshbuhBnp41nXV8rL0+grWTLkqS0gYApAkGQvGoKMpqngZM9GvTuhkdY2Htl1U5A9Nt+tY1swBT5qOLkCEL+Hk1og4fgYgsTO6I2eS+9GeHUTdH6OorpOYNICp6oeeXM3yrHzhT3vbfhKaXkafSVLAgJGF2riY4kusq8eIhHJVIHIaFj8VGc9I5JSFNRNR35pb7eOKSCRVEaBRODjfsaCIGGKI8spooAcm5PZGz2u2wO9ohb6aoHI6lo1+bNTXY/ceTdBt7M96/pKeXkafSVN7jiSriAxBSSB2iLV/avVl6LvkVnILspz69iBtAGJldkHucv2wFjdIAA57IJEopOARCY58zcKSLI86/pKeXkafSVNOhwBiUMIiONlxVMbRiQEicWRrS2TEd0maU4Wx4tI2qC7vTZuGwTFkbFsJ0ktkFBWdiFiS+6UaERAwrd/qaoGBCU6yZm3XkDipzZpKk+jr2RJNxRIgux1sTXErhmCSMtUaI2jYUtqY9WWwG6egtiNAhJZzxf29Hj3b6JdRbWzpGKvjciK9UP2dXcLQBrdaKSGqU0dwjV1KLhiAzQr07Oer5SXp9FXkmSw0VSPg8TREF42GI6AQ2seLelNEQyJSJymKchdV6wmCrIEOrrGb/+mC0j6I2fpXvWdX63qiPythV7dAKfiEPpdvRm6D5J0lafRV7IUb2wlFKy+QfS6Y7pEIJOhtYyG+lxnfQmCTdNQsEZAYvK7LwRJUMDBdhI3HUppkGSeh9yl+2BWN0GrPAqj6iismkZkVh9Bj8vX+hFJ+srT6CtZUi/eueNIgoVR9Nl7iaQ1E6G1Ckga3e7fUOMM9Fo7XkHDkUiEIHGjks4gSb32EdUFLCDJW3IPrKpmBRKtQqKSijrEJCJxRl0mIHW/5eMr7eRp9JUkcXg8B6TpAhKnbwR5+2cISCZAa+InKMaqAWk5D09HbDI/2cD3bNxeHjU5stTjPK98A5g9OKk2k5gLkn4CkrthVnE0Kxtcm6ELVPJWHUSoUKKsFI2kfP1NeRp9JUkWIwzO1yowCBSGkfkgG1rHS0ozTklrLEWPA9MQGhJVja3sqQkKTNjgqllSz9JhSl0OnU9NkBQib+luN7Whao4JSFrRY9X9CPcb5VnPV1rI0+grSfogIOl1YAbCw2LxxtYESAgRkUQkBAnHoaQaSCj22rggaYyDpE1A0oKeq+5FuHCkZx1faSFPo68k6X1BwgmNBCR9989CdGCWag9xoREHCT9HYTI9cgHjtf1ki702LkgkrSFM+F2byib0ViAZ4VnHV1rI0+grSfqbIGkqxYD7ZyM2MFeVcdtDCBJTlgUkssxIRHUFp6DOBAnbSJpgVTWh76p7ECkc7lnHV1rI0+grSfpbIDHaJiB741gEssIqIrFtdhUnuntTr6emqxRIlghIqgQiVfVqMJqzuhGZV26BmdXLs46vtJCn0VeS9LdAYp64EKGlg1TUoVsmDHYXG+6EQR3fgUldWbEBbkRCkDAiEZgEVjcgPG2lgDEk5+5dz1fKy9PoK0n6ICCJXjdEdQ+zm1hNFiQwsTmQTeoTJqyr1Gm7qSIrdp6AZI+b2qyWiKTiiEQk9cibXS3H7E7m5FXPV8rL0+grSfpbILFOTELGsmGqrGEE1ExqhAohwi5f1TZCiKSoQ54BkmpOJVCP8NpG5M6ukON2p5f0lZbyNPpKkizNgBmfe9XuH0HmQ9PdqQM4qrV5HLKapyF3/uB4eZZz20UYiSTSG7UuFSMSOSYrqxAFS26HXdkEnbPIr2lA9MZD6D1tqawP+hFJ+srT6CtJYmTBLl0FkgERRB+cDqe2GFbbWGjHy5B134UIDHQ866a8TDmn7F7oueRWOOX8ePhpaDc2IbRmD7LVpM8CEpOjdD3q+kp1eRp9JUn8rg0/Cs7fjEiiD05DoJ4fxRoFrbUMPQ/MgN0zTVMA9jJl9UYPAUmggiB5BNq6RoQqb4eZNVTKyHnFz91X2snT6CtJUl25HA8iv+1+bmrjNJZCbxoNvfVC9LhrcvqCRKU2vVGwdCesSgFJ+Slo6xuRUXUnnBjTNctPbdJXnkZfSZKaqEh3w/uAgCTjwSnQ6yStaRkLq2UK+t8yFYHs9G2UtGN9kHfdThhVLdDKT0JbU4+sVbvknAgSAajpRyRpKk+jr6SJXbpxkBRGEDs4VdIaAUlzEUKtMxC97Lwu5dNLdmZf5ApItGoBSeVJNQF0wQ23won2d8uYZ9fxlRbyNPpKmggSCfHlt9M3jKwHL4KaPkBSm0jDDOTOHtKlfHrJzuiL7GUCkppmaBUnYNU0IDRzhURhWWq4vw+StJWn0VfSxDEktvod7BNG9oOTofMLe5La5LTORY9Z6fs+CidbIkiyrheQrBGQrDqO0NomRCYsgqVFYFqS1vggSVd5Gn0lTS5IONQ91FsikoOT1KRG2rEShA5ORmBYpvvZiTQUG5IJkthyAYkARCs/huiaRmRMuEZAEhaQSDkfJOkqT6OvcxbbNYJu+wZDdFnmG7nu+y+Wehrzt7vcuR4bFzmwjD01BgJSJ6ARJDqcPiFED5XCbDkfelsZcnZMghXWEVJ1Om8j1cTj4/U4UxbnlY0MQOSGHdA21Ul604Cs1YcQGzdPXSszINfGNgQofIdIoGMEYJgONCskyxrCHFvDbXEqSluiNtOKvxrACC4iywYcKRfkgD52Jaf8depW8jT6Olepdo0YNLn53acqPxHBeVQJD07ObMgN7w44OxMmrmOo+qKg2AKMSsRu9wsheHQ07MbBsE5MQa+bZoqzuVMpnrX/lFECIjwHik5uKZg6EnVYkSGIrNgFbctRaBsakHHtbljZo1UZw5ZzD9oIhB3YAQNhKyp2Dr4LiTTkiMKGLAtczJBc04jAQ+2T4MhQv3ld3evMOj5IPkZ5Gn2dq9RAKrl5CQU1FoIOFIgDIyR/DQWQs9/SdSORBEhUNCNPZNrsfmGEjxTDaRwBp3UGApcPgiZPbU6xeNb+U0a8Djwn/u0Qz5ef2AhE+yJ35W5o61ugrWlDj2v2wXI4oVGWlLEkGolI1CUAFmCynu1koHzjzfjSl5/F1RcWq+2YNqMUWR8IYPjwUTh072F8+9vfxcvf/iYaj9Wif4/8TtfX18ckT6Ovc5QbeXDSZoGEAgmfxnyaEgruE7WzeKOfDZM4hEymRfIE7xVF7KFJCB8di9wjcxAp7eOCJiVBEj8HBY64rVPkxHPl9I9mOIysRTfBXH9CzSTfe9FOmNF+st6BpQfl2kkU4giE5ToUj70QX/vmv+KP4L+3se6KGSracAJyXWXbhSNH4Kdv/De++LnncNOGDbjnoYN4U0r++ysvYViB/+nPj1meRl/nKN7gbARV78kokNCpCBDCRJbFHnACCMhTNFGH8En8ToCE2wkLRCxJh6z8CEL7Z8I4NAk975uPzFF9xOFSNbVxo6h2kPAYO4kgsfnXNBAsWYpI1WnkVh9HzkVLoIUcBV9LpDN1kYisd2EhvvXNH+H0409h+U078Zc3f45N86erN5yDAlpe554DB2Dukkq57h2fsNj0ULPCzh0rF7TbfH0s8jT6OkcRIme8xs9UR2eOH8akSZPxtRdfwK9efQ2/eu3XOH78OHr17KnqERxuZEInNOGYOsKq+zeM4KQxCH96Deynq5F9pFxSnXyBD+ceYdmOfSdfhAcjsE7HRWgQqPyrrgVTO7ZpDEJw8E2ILvgccq/+NCIDFoktKoARsLJtSUVlOkLRKM47b4za1rCyGXjvvdexfu5FKqrhtbbUNea+mDbZyFf7NTCrfLNg5D3Ubi9XdX19bPI0+jpHJUCioEDHEWcgGK5eVIV33n0bz3z+Scy+5BIsXno9/vjnv+DL//gcMiOheEqU2I6bGtn5eei9rByZLQ8g8uPjcH7eiOznjyB3yxpYeT2kHLfdse/kKwESRiWyHIeIAkP7urBAYIZEEptg9myDUfQijBGfh5l1u1yrWXLevUQEqMCIw+RVmxOjNwMls6/Cu3gD6+dNU6DmHLUEsErxbH6qNIAopyCQvxv3HRKQvImqORNkmfv39THJ0+jrnMQb24g/JcWZ4gPKnFA2nnv2Ffzqlz9CXlZHO8kNKytU+H3FnFlquSMqEedxDORcPhN5ErVoj9TD/KdTML//CWhPHULkZB36rV4NK5zorUgVdQGJSIFEYMC2D0JE13ogpK+DbRyDHnsSoVHfkwjrXwQix2DZO2T9JLluMfnLmd9kG6oLlz0xAYy7eBHexv/F2vkz1HXi945N7kuBhNeO1zsLkdzh+PYPf4zXf/oy+mec3S7l6yOVp9HXOYlzptpqrIM7XSCfjhqyc/vjlz//Ax5/tFktGxZzeRv9Bw7B7377Bh5+4F5l7wCJpEYCnD43b4Bz/AS01jbEHv8k8r78OLRPNsJoqcOI/QcRVFFJ5/0nWwmQdKQ2jKxUhKVgkC2QHYigsU0iErkWTjMiw74Kq+Arcr0ehWXeB9vi5zojKuJg+4cuEZ2uUqEAii9eLCD5HWrmzVTbZgRicjY1gYjBQWwKYL1wx4GTgud3sHqRW87XxypPo69zEm96ubFVWwAjErdBNZxRgP/4wS/wrX9+Ho5yLFdZ2fn4zeu/xmOPNCqAECTut3p12NlZKLx7F/S2JmjNJ5Fz/NPo8/dPQWuslwilBX327UMov3f7tlJHXdpIlPgNY3br5sMxRyJo3SqAOSIAOIRg389DDz0p1+pJAUkdgoEF8ttRELGYFqprSfBaKJ15Bd5874+oXHhZ/HoZAhq5xuy9URDRULP5fhXlPXzPzWosjmr0jh8HB7e5YEvIvdauOtt9/S/kafR1TuJN7zpS+xgRBRQTO3a7N3jj0YcxbfoMTJ15CR5/4im8++67ePTUQwoiqrdHOYQBOzMXhffshnbyiEQgzSj4wvPIe+55WW4RPYR+B+5BKMdtqE0d0SG7gEQ5Lkf2ZsrfXElphsIxdsnvo9DMFjjZX4fhfFGWPyvrTsE258h1C6keKU5mrRkS2ZlMT3RMnnYx3n3vPSxbvFBd2yC3bXB0a76sD6OyZpu6xi31uxFgo62Usa2AAohpurPsc5uq0VcdK4+T15vyYfIhydPo65yUAIk7DJ43u24GREFEBQx33LUHv371l3j1tdfxvZ/+Hzz40GH89o3XBS53qfpuRMKb25JQPYQeV16JWMMDsI83IuuVryH6zRdgnJbfp46i74oVsOxU+2J/AiRudECxnUPXxXn52oCkN7rWR2CxXuBwAHr0Ewj3fEWiry9Ct1rF2QkYvozodm1blkBEXU93WxeMLcPb77yDubNntNsMAYRlR7FsxVa88x6wb8+t7esSYhTiwsRUcu0+SD4ieRp9nZPOBolmCBSCMbG57SWxSAjhcAxOJIr+/Qfiz3/8A267ebVa57aR8Oa2YetBcZIwcq66HH0/cwzh7z2LyA+/hMzTR5FfsxLhvgNlHx1OlhrqAhJxYNWdyzYjZWNjaKY49qUCkpug55yC2VPgmPd3kuZskfJs0xA4Sh2+AczoISOWg+07b8fDDz+MT3/mcyriePaZz+Lhw4dx043udSudOFXZ+a+h9mE8+MA9qD30AI4eqcWOHbdJCpkZj0YIlQQwfJB8RPI0+jonxUEiN2sHSGzoNhsa6UTx7sq4duy4Vd38F5W54yTYwMjeCt7YUYk2MoJSLyi/t69E5OttyPrGCfS+/2ZomREpZ4Ev9nXsOxXEYz8TJIku4I4yXN9XYDEPgX7NMAY+B3vgcYlOOI6kQEGEUr09ApKs7DzUNrbg6We+gE8/8SSOHT+Oxz51Gs88/TTu3btLohETY0rH4/gjn8DxU4/gySc+jS88+Sg+/9kn8Pmnn0FtbSPy8nMkunFfAGSK03GsPkg+AnkafZ2TPEDCNhIrghFF4xHKYGTilp02dQbeevNNPPHYIwjITc6y7XXkxrZ1GxYHnAU1hCrmQDu+BWbLFhRUL5TtsYvZdYwz959sJUCScFZRHCZnyoARGofIBYdhFj2FyLg2OPmXKDsjGLcbVyI51fUr5d9HllwLL3tXESDqY2J+RPJRy9Po65wkN2PXNhK1bOG+w0349+9+D1945mn843NfwKu/ehVPf+4p5OZwzIRAhA6mbmze0ByQxnoaAr0z0eeuG2A0rEGs4Ub0r5jb/sTWHDpA5/2nghLO2ckx1bl1kixnnjcFoeL7oBefhFNSh2D+VLXOHXPCkcBuKvh+6oC1iJGM/KVNjXiNX8fEB9XPrs/1Pkg+AnkafZ2T5GbsAhJ3PImDnv2H4+577sOhBw/i0MEDmHfpHFWG9SyDX9XjbzYuug7gju7UkHFBX/StXwv9yA3Iq1+D81bPgc75OgJy86s3YxP7ThXxmDrLq4yG7AGXwxl/EFpZM5zSWolIpqvrZcl562wnUZGNW1YBOf7blbttNkxzkqR2kDAdkmVb7KrRmnZeVx8kH6c8jb7OSbypzwaJ4XB+krN7WEISlju2DScQcW94jv7kE1ScSE3+I2UCo3si2FwBrWUFMltq0GPjZdBC8tS2BD7t+X4qio6ZcFKK14V/ecxZCOUvQ6CsHtqEVgFKAwK509U1Y7uPrrp9O7blDRJ2KQfkOhG+YuOANAUSQ0DCOWBkG4RLPFLpqJuQD5KPSJ5GX+ckgsS9KRM3Pz/wza5c3Y7Ib0sNkAoKACIBB7apu/OT8kZWjsPBbLy5DYTkN19MM0p6wW6thHa8AmbtCuQcWIHgiN7K6VL75k84KgGSkOu0pj0M+cN3ITKuUUDSBEOikkCv6ySt4aRHcs5s+4mDpP06xtV52+y14khiFcW1RyScOMqdiU5tg/b2ep2VOL6EvMr4+h/I0+jrYxFv6s5/JVqR3wFJXaLXT0a4ZS20pipYtRWINK9DqDSdPkXBc0rItZnRYuSM3YdI0RHo4w9DG9+CwPn7YQRyFUgIgg/u3B3bfX+br49JnkZfSRKHd1sBDf13LkWgsQZafQWsuioEm9YiWDLAs066yMgsQ8aYvQKSo9DLBCQTW2Cf/4CAJC8OErYPMXrxru8rpeVp9JUkBeWpagY15G9ZAKtpDXSJSIwj5Qh3A5BokVJExtyHjOJG6MUPQbuw1QdJ95Gn0VeSpBprwxpyty6A3boOemMljKOS2nSHiKTnLATHHERwdCOMEolIJjQLSO5vT23c9418kKSpPI2+kiT1clmmhujWeTCPrYPRvBpWNwFJcNi1cErrYY9ukdTmKLTxTQiMuldAkhMHid8AmsbyNPpKkthD4QztgZz7V0JvWQ2toRKWpDbdASTO8GWwSpphFR2DVlqnem6Co+6B4WS7PVU+SNJZnkZfSVSPqaPRp3ET9IYKt7H1aCUijQKScekMEh328BtglhyDWXRSQNIQB8leiUiyfJCkvzyNvpKo/CmjkF+7DlqTgKSRIJHUJu1BIqnLiBXQS0/BGH26E0juhhmIqdRGgaT9nRhfaSZPo68kKnPycBQ0bhCQVApI2Nha6fbaJEDiOWIz2WIkIRDgsSkYcC6S+MxkapCZDXNYpYDkJPQxJwQkHN3afCZIWC8lz83XB5Cn0VcSlTl1BLLq18GUSMQ6IlFJXQUCrWvhJEDyV0dtJksc0Rsf5q+GpvMTnSH1FrOak8QRQNgFMEZugVHaDHNsnQuS8W0Inn+XpDZsIzEFJGb7yFZfaSdPo68kKjp1KKKSyugCksDRKhWVBNpSGyTtw/zjIDG1KGwBg4pIxGbnjESgZDf0cfUCktpOILlT9drww+k+SNJankZfyZKhI3L1eDht61RDq1HnAZKUczaCxFLHrl6iEyCYWhg234mJQy+YOwah8fug+SDprvI0+kqSrAwbhTuWwmxb47aR1JZDa5DIREASLB7gvsCWkiCJQ0CBxJ2rlRGJpUBiw84qhVOyz49Iuq88jb6SpEBWAIV3LYfWIpFIcyX0OoGJgMRpXYvQ2DhIUq5BshNI+NEqDqrjq/5sI1HHGpbzugjB0vt8kHRfeRp9JUl2lo0ed1wHrW216v5VIKmvhNOS6iCxBQLyV4GEja+cMyQBkiiczKkIle33QdJ95Wn0lSTZMRs9b4+DpLEC5lE3KjkDJCnnbOz6DaqUxk1tCBJbQKLHQRIRkExBqNQHSTeWp9FXkkSQ9N4VBwnbRo5UwqytRLB5LcIpDZKoAMSK99p0Aok6VgFJTEDiRyTdWZ5GX0kSU5s+ty2F3lit3rOxCRIOSGsUkIxJ1V6bOEgEBurYGJlonDZSh6mWHQQEJE7ZAR8k3VeeRl9JkpnroPC26xCpcyMS1XNTV4HMhrWIJkCSim0kAgE1kpUw4bePBQi2RCYcsaraTQrmQp9wVEBS64Oke8rT6CtJMvIC6LVzCWL1a6HVrpIUxx1HktogEQkAOPjM5AhXQyQpDiOSsKzTHYHEKAHihAYYxT5Iuqk8jb6SJCNfUpu7b0C4rkYAIhDhi3t15ciQ1CaSyiARcLggYXojUiAxEJWoxHBCCBVvhlZWD8OPSLqrPI2+kiSzXwQ5+5YjVF8DvVYg0iwwaXBf2mNjqyqX0iDhCFcBgkWQmAISfhg9DOeCrQKPJh8k3VeeRl9JUs6lxchrWA/zcDnM+GA0goSTP4eK0wEkhIHbDczvzEQUSDJgjdohEUmbD5LuK0+jryQp54rxiLSuh1Hr9tZwMBrfueE4kpSej+QMkCQiEn6nx4RuxWCPvM0HSfeWp9FXkpRxZRmsE+uhC0AC8cFoBImaRiA+1aIaS5JKYoQkAPAGiSEgyRKQ7IqD5KgPku4pT6OvJCl8VRnMUy5InPhgtARIAikNEnb9dm0j0dUHv86MSHyQdFN5Gn0lSaGrBSSnBSQNApLDHSCxUxkkahwJJzPit485hkRgEgcJP/ils41k5E6P1OaYgOQOHyTdQ55GX0lSZKGkNvGIhJM+q9SGM6S1pHBqQ5AwpZHIhC/rGQIFtpnwW77qy4FGBszzb1VTKxrFjTDGNghImgUkj8AZvV1AEhOQ8L0cwwdJ+srT6CtJirKN5OR61VOjGlvjbSROs9vYmnoQcaWrthH5qwckvXGHyusmU5szQWKOFY1pglbS6oKkaLOAJFNA4s/ZmubyNPpKkro7SIx2kEhEUnYSzpibYApI/Mmf016eRl9JUrcGyfgESBoFJAKTsuMIFW0UkER9kKS/PI2+kqTuDZIWAUlLHCT10EpbkTF2IywBCT+e7n7Xxnv7vlJenkZfSVL3Tm1ckFhjGtRbwLpEJaERVTDNkJTjbGqyDR8k6SpPo68kqXuDpBXm2FYEiuoFJEdhlDRCz18AS7MQFIAYJuuxB8h7H75SWp5GX0nSXwMJu3+7D0jqYIx7GFZZI6y8K8CPY4VV+fgnLbps21dayNPoK0nyBEldBcIt6xAuOS/tQWLEIxKz+DACpXWwC+bDkLocAWuq6Qc4u5r3PnyltDyNvpIkBZITLkj44h5f2rObapC/bSHMzKALEnFSr7rJ1Fkg4Ut8XUFS1gqtuA56cQu0sacQLDkEp+dFcD+oxXqyjS7b9ZU28jT6SpL40p5NkDQmXtirRFDSmt4Vl6r1BsuJk3atl2x9kIhELxWAlByBNu4YtDGPIVJyEMFe4wQkltQLSj1+D8d7+75SXp5GX0nSXwVJ9WWuc7JcWoJkp4CkTSBy1AVJ0d8hWnJAQFKsIhIfJGkvT6OvJKk7g4Qv7bkgaYU+5pPILNmPUM+xAhJd6jkKJF7b9pUW8jT6SpLOAklDHCRVc5RjGpx9LN1BUtwCo+g0ssbdi1CvMaq+IfXUgLRO2/SVVvI0+kqSPEHSuq4DJKaE/3bqNUp+kDYSrVRSGtVG0gxrzCPIGHU7jNhgNQiNbwzr/Pi4PyAtXeVp9JUknQ2SKjgECVMb9oTwfZR0BUkZQcLUphmBsaeQMfRmgUg+dIv1XZAYKRht+fpA8jT6SpLObiOpQLB5Dc7bcKULEo6zSMvUhiA57oKkuAnOmBPIHLpNziVPlTV0TmwkEYn89tq+r5SXp9FXknQWSOoqEGpZh9iSyXHnFJBYqTf6swMktoCEI1RdkCQmNjLaQVIbB8lxxIZslnK5Ch5Mbfx3bdJankZfSZIakHZ8vYIIZ0hTqU1dNaxR+W5bgsjyqJd8cQoAV5wOwOBIVYGDKcerW7lwRt4Cs4yD0Zqhj20TkBxG1ojVEpFEBSRhAZHAx4dIOsvT6CtJUlMtEiT8HAVHtgpIwker4QyWFEDW2/L05lO+a72kixCIT5XIBlNbM0RBiUrE7hQgOmob7PGHoI1pg1H8CILj9iM69FoBiaRBWrZqI/FBktbyNPpKkiJXxYfI1zOtcUESIUiGSEQi6y1xVPVh7lSTAgnTG44JIUhMBRLVnhPIQXjoBgQmPAxt7DEYY0/CHrMXRs40KS+RiJbhgyT95Wn0lSQpkPClvUZCRNRYhczD1QgOdEFiCkg4v2nXekmXggDbRtyohBGJxQ+KW2IPZiM2Yj0CZRKRCEissacQLbkXdtYEqcfPWAQlFSJQOm3PV7rJ0+grScpYON6NSBoroDW53/3NPVKDyIACtd5QTpqqr9qznUNAoiISC7YeB4kdQaDvMgHIA9BLJCIZcwyZJXvh5IxT9fj2r2qgVW0sXbfpK03kafSVJGXML0GgbT305mqBSAXMhmrkPlCBUK9stZ6D0QKct6NLvWTLfUemAyQuHBy3jcS0YWfOhVMqEUlJK8yiVmSX7kYwd6SqyxcRXZC4dbtu21dayNPoK0nKXTABmW0boNdJRFJbDqdlHZyaWTACuuoB0SxxNo96yZYLErZzuKkNe2E6QGLAic1GqOywgKQFVlEbIqN3wMwsVHXZC6XGnvjdv+ksT6OvJClj6kjEHq6CdaQcRn0VIk3rkLniIuVsAbY/OPLkTsFZxNT0BvzKnmpwdUFi8WNZCiQanMwZCBMkpZyztRWBQeugBTIVOGypq9pTdL/BNY3lafSVLPW0EbtrCTKb1sM8XI7s5g0CkinK2VRvjSMwMdMFJLYLElkOZk5FiKlNWQuCpScRGbRWoquA6uFh4zGjFx8kaS1Po69OMinTUo6spgO0MuWvqcZzuG/jShiv67CVE4hzWEHlELqs0/UQbENsdC7lYPHtiVQ6oML5ePsAt5cXQI/dq2A1yhO7vho59TeiYNl0dyCalLVNjhxNVZCw7YYw0NWoVoPAY2OrnFswWoLY6LthX9CI3KLjiPYtF8Dw/RqeF6+HgITXjpMc0d7pHIORHBSEgu74GTMg195yr7tabyIzO4asWDayo6H2Om6q5etjlKfRV1y8IYOmCScQRFRueNuKSlTQG5bc7PnytLXUuy+WSjuilo2gkwfdicB0dJiW3PB6FoJGGJYsG+rlNDeUp5TzcRyFgEZ1m8qylR1Ez13l0FvWQ2urRvbDq5E9dYRKD3SBV1gPCNASTpQ6ch2Xx0WQyF+ea0DEiETLkOikCDl97kSf859E4cDTUmax2LPdXii5rmyc5XYsJ4pAOKZ+U9cuL8f3fvILPN36ACJSVjNCAqggTNtCn8L+OHS0Da//9jd44ze/wa9f+zl23bwREdtUcEpsw5e31AugHvb/oTyNvjrJEge27DAyA4w8JNrQJLcXe5bIoaMIaCx5+gbMEIKhAlkWZ2qv7/5n2XbCqToiEvcpTifkWAp32Y7ZKLztOhit1dCOVyD33uWweovzyDqLUY/si9FQx/Y/PBUUFGDWrFln2Hiz9e/fX47fVutzc3PPWN9erquNTq/O1xGIjMTkEZuxbPFXcf6Ql7G2/BUsX3QKeZHZsj4o693602dMR58BgwXAAQwePBiPPfoo/vIe8Ke338XzTx5T5dyPlTPysNHQ0Iif/OA7uGbRYlw4aRIaTz0B/tu06lr3GN5H06dPR69evTzX/U/Ur18/hMNh9bukpATjxrld2x+GLrnkEqxevRoVFRWYPZvXTMPw4cOxfv16rFu3DsXFxcrGa7ZmzRpl4zHQxnOsrKxUZadNm6ZskUgES5cuxcaNG3H11VfDcRz1/7tgwQJlW7ZsGTIyMtT//aJFi1BVVaU0YcIEVf+vyNPoq10EgUQWAYlE4rbZiyrw+N8/jutnlqib25SoRM0TIikPy86YNR1Pff4zeP6F5/HU489g0vipLijoXPEnJZcTQOkcodgZFgbdeg3M1lXQjq1C770rEMyPIiLrIkwZbDmeOJA+bA0bNgw33XSTurF4s9GWmZmJW265Bfn5+Vi1ahWmTJnSXj4U6kglKMtykJfXo2NZoq1MYwgKjeXYtPjvUX75v+Lyoh/gnq3fwb03v4gLB96B3Jh7w1Obt27G6DHu8p133I6Xvv4ixk+egU/9w0v4xmdb1TWK5QioAxKxWPm4UJylb6QDqj0GTsRvfv8XPPvJWpWG2hIhdgUfz43HvWHDBpx//vnt9lisIwrqKpbveq50tAQ4gsEgbr75ZgwYMEAtV1dXY+jQoco5u+4/KyurvV5HeubKkgi28zLF/e7cuVM58aBBg9C3b191rNu3b0dpaan6P7v11lvVvgmBiRMn4rzzzsOuXbvQo0cPBZG5c+eisLBQbYflLr/8cpSXl6vfBBThxO3zmrDutddei+uuuw7Z2dm4/fbb1T4IKW6v6/F1kqfRV7skRZFohOnHgAHn4dSnHsOf1HMPuKv6SlVGtX1IpKBpEdxw/Rq8+eaf8PQXn8C+ffvw8lf/GW+/9S4qr7/a3R5BwpBSRIjwhmfuzwZHRiZ2VECybTHMlhporTXoe0c5glkxZMq6CKHmSH2K2/qQxZvo3nvvVTcRn2B86vHJ1traqp50Dz74oLpZJ0+erG5AOgxvVEInP79AyqzD5s1b1dMrJA67ZPG1WHXlbRht7cKe1S9hau4L2LbwZ1hz2Zewf9uLuOemL+DOrc2YP3e+2v862eeIkaMRjWagRra/enU1Fi5ejude/jd869lPoPyahahZux7rN9yEeVe6UQfhwjaj84vLsGX7nfizRC+PHzuEQfl56pi3bNminIZOOmTIEHVeXL7//vtVFDF16lR1HtSKFSvaAUrRabmN66+/Xp33yJHuuJcZM2Zg06ZNcq6bMWrUKIwYMQInTpzAkiVLFCgYORAkif1zu4FAABdffLGqR+iMHTtWbWf06NFqm/zLSGDhwoXtQLnqqquUndBgWYKDUQJh2NmpeRyMShgxcpnnQBvhkbARajx3Hi/hZqr7VcNFF12k/r9ycnIUEGnjsd94440YOHCggs+FF17YfpzvI0+jr4QYBRgOMrPy8OUXXsTX/+llrNlxL177w++xu2qBKqPCeimX168Ur//XH/EPn/1ke9SQGcjBd3/wK/z8B19BXjj+xGHjqoCJb8mGBCxRAZEaI2ISWCai8y5E4PguGMd2IXjlxVI+LBAJwWHDbEjKfYQgISx4840ZM0Y5DyMR3kxcV1NTo55cV1xxBXbv3q1uyMWLF6vlSy+9FNu23aye1EyPcuVpVjZ2AmaMLsfs/g9hT/XLKNE+g/0138LlA46jZd+/YPmURgzOXYidO3ah/4BCVFXXYNDgEbhKwu2lS5cIUKK49LKF+OEvX8Pv/uvHkhpdrZ7G18m623beGj/uMIIZMdx11z6cPn0Cb7z2n1hbWY5rr7xSPWETx8Nz4vnQ6Xnc9913nwIF0wCChZEXo7HO4Tud58iRIwoOhCfBQOdkhEZHZoTAaCBho+MRELweTBm47cT++/TpoyDN/dNRCQU6KIHMfdFxuY+1a9eqCKB3797YsWOHqscHElMMQpvq3LZBOBFMiYiJKdvRo0dV9Jgow2M6ePAgtm7dekYUxHO444471P91wsbj5bkkIpv9+/fjSrmWBCAhlyjnIU+jr4QIEtNBMBxCUXGJ5O828gYW4/V33saeziARzV++VUUqVVe57QyGzZ4IDZt2PSTWX2NW8aD4Nm3VaMjGSX6qMqgaEcXmFMAYMA6xNZsQOd2C0CePI2flOugR1suRMrK9oJRlT0h8nx+m+MSms/E3bzL+poPxJmI4ziczHYE3L52F5eiMdAI6ao042hpxhIumXCRPQBeaUa0Eq+cew/o5z2JW3mnsq3oWE4MHcGDLc5jUa6dEZGOwbMkKyd8vEoeuQtHoErW9vn37qPqRWB/8649+iv9+/T8xbEA/ZSuSyGDdmip1zR5seQw//c+f4fXXf4s//e6XEuFIJCdl+hf2lifwjcr5y8rKVPRBUHAdRSjSUZYvX97ensDz45M/UaaoqEg5Nn+zLJ2ezk/nInwYxTBa4LZZjsBhFEHH5fUgyLh/OiUjAKYQjFAYefD6JlIsgoN2lmGEwLYKgjnhuARq4pi4P8KFvwkrQqRz+sR0JBFRJCIo1mdqwshj0qRJysZ9Mm3h/hJ1CS9ChKkPlxnFJABFgBNsnSO2LvI0+mqXDiMQVG/dJmznjZmKX7/zDvZUus7k9lZo2HpPG/DmHzF7VG+1rEs9/p23fLuA5E2smjPeLc93UAzeHLbqsVDblmjE6lOC3KV3IHbnCUROfhHRU88h985jyFsgN1lBEbRAFIbF+T46juXDFG/AhLPxZiVAeGPyJmfYu3LlSnUDEiT8zXIEC52I+XYvuRHZuLd58xbMn3e5CufznbG4reY45gxuROXUT2PD/EcxQtuPxr1fw7ShAkmtEOvXbERJ8ThUVVbLzT9KOXlRkRtKDxg8Bt//2S/wf1//CS6fLdGZ2BZcPhfbtm6GbgVwxeIbsGHzNrQdP42nn/4sfv/fb+DwvXtQMnoUCiTdonMwzKfz8twSIX0iyrrhhhswfrz7/8LfbJDkcdP5+KRmOsB1hCyPi9ChM/PJTQdmQyijNgKBQKGz0ul4nXr27KlAy/Lz589X15dAJljuuusu5aisz4iD67mfRGTENg5ul/u97LLL1DpGE3RmQoogZwpFO0UwMbVKLBOKjGIIo0QUQkAwgmQExe0k2nQS9QmRztEJIySCk7+5T0ZfXduKOsnT6CsujgUJBMNwxNmtOBj6j5mCV995txNI3F6auw4/ivd+8ytMzM9w7bZ70WddvUVA8g62XDNDRS8cW6LpWaIgbIKBqU12H/ReuBFZVfXQNn4CTusrCNS/BK2mCdmVD6HgUglV7QiiARuRj2hka+eIhCChc/DG503HkJnOyPYTPnUPHTqEefPmKcgwPx9bPFaFybxZt2+/BaXicNdec42kGduwpfohFEVvxR3lX8S84acxyjiJtgOvYNvaB3Ddoips33IrwqEo1tWswWBJFy44/3zslJt2wYIrsXn7nXj+336If/nK49i8ploctRq33bZLnPpG5MSysfOW7YjGCrB4yQ1Yf9MOfP9HP8Fbv/0ZNq+6Vo5tq2popIMwSrhGjocw4BOfKQvPkRFJAiT8zeiFT20+0elULJ+4NkxV6Ei8RnRalud62ggcRgeEEcvPnDlTwcq9HttVysQydHAeByFNqNGB2QZF52Y9ioBgXf5m2wWhk2i3YkMogdXU1KR6XggUng8Bzv8vRkncPtOYvLw81T7DfREgvA7cD5e5TQKKUQ1TOD4YDhw4oGwEEI+X4Nu7d6/aJ88hAbS/Ik+jr4QktTEtEyFJJwzHDTEHjp2M195+D3dWuaFn4nss9zR8Fu++/nNMLmCrvAk95IacMxdtUhHJpqunuCDhPB16phoPQZBwyHtw0Dj0qdgPc1UdtNUtCO//EgL3PScgaUao+mFkXlYpaU0+QgKnYKcc+cMUocGblL/ZoJf4zScXnYo3NaHBm5o5OJ9YnXs+Ro4aJTfbXBWlcHmIhNOjLxiHgf1LkCEpzvgRK1AYug59AhUYWXgNRgy7EFOnzkBulttwOEBu8kQYP2jwUFw86xIMHl6Cx555Ad/5+nMYNWQQ+vcfgGXLr8ey692IaJAcWyiUg0A4ByNlXy3ilO+99Soum3QBhg0dhjly8zM6YFlGAAzl2T5Bh2LkwYgl0WNDZ2REQAdkKsCogxEF13W+NgzvmQIRroknNLfDdCRRnqKD0vkIIS5zewQM6/I8GSkwfSIAEpESj5FRTeeUg1Eh06IE8HiM7F6mszNiYITDY2IjLRuPuY/EOXEfXM/6jCpo4/8PgUk7/w8ZmVG8LrRx34n/Q8J2zpw5uOCCC9Ty+8jT6KuTOAeI2xjqRhrnjSzBr956F9srr5FlHZnxOVRvP/QY8JdXcfnIPLkxsgU87n/c/PJtbmpzaaIhz01tOMCM29ZsC5GB45Fb/hCM6jro1YcFJgKUNY2iOgSrD6LHPA4pz4PFFCg+CjZZYvjfuS3hQxWvs33m+T3z9D/iO698C9dctRArBSIV5eW4QCKgh47WYcLEqe3lRgwZhh/94Ht49RffRa8e7tvSqSzCmdFewmkJEUYZjCq8uoJTXJ5GX53EVnLVvRsHyZCi8filRCS3rV0qyzoy4hHC9ZvuUcBYt2CiLFuSw0v6IvaKHXeL/Q3MLh6qlt02krA8LXQ1dSKHiYd6j0Th8rsRZGpT3SwAOSZqld+1iFXuR8H068TBsmFJ9JPsGdJ4k/Om91r3v5bJXjIdy1ZW4GtfexFfff4luXaQKOMdvPj8l/Bv33oB40rOh+0E8OgTn8Hv//hnfPWFl6TcC/jD736PH//w+1gw98xBdakqXkNGOp1tjCw698qkkTyNvtpFiHAIuyhuy+s3DL/+81vYeP28TuU0DB1/Kd566y2cqt3fbsuQ0Pfl//gPfPsbX0BWIP6k1d3tMc3h+BGOitXsGJzhM5G78iACqwUglY0wK44iq+YIeq/cA7PnaIlIIghLeQ5OS2y/u4nv6HCm/Iumz8SePXtx5513Y+vmm7F96zbsuesO3HbrVgwe6qYY/L+59LIrJI+/F3fv3odNN25Ejxw3EnFSdLqFbixPo692iZMbFiwnhqXl61TL9cHaJvWUfP6pU2p5Q8X1CAfZeOqom5//WtpacPP2W/DVL30Fv/n9f+Gy6fG0hk8bdvVKWsPel7BEJAH5yy5mzciBNexi9FmxDz1v2Is+K/cid+5ahEbOhBbqKRGMoyDCb8WcfZzdRBKNuIP7PNZ1ksHuZY8JnhScGekRzl3W+fpI5Wn01S65IcX5A+FcHG48jpdffhlfeekbeOJzT+OF555Uy59qq0V2jJ+LMGEHgli9shIv/dNL+LqUe+qxJzCqaJga/s6RrGoKAL7opxvtEYka1cp2j3i3sJ3dH8GCIXDyh0AP830QztshIa9mq7SG5b2PtRuIbSQKtowoTLkutgCUbwMLPET8myjHHrVEGV1gz4ZFdZ3TMzVId3kafXWSzicf3/rtYudNm/jrMKKwRPGu4K4KmSxHB3HB5DqMWzfxAt9ZzqLEsnzycrviLHSceC+RL18pJE+jr7iUc9Px7QzlxHy3gyNTOW8qowM9IBEEpxEQKNgmZwQLSNkAzIADU/J0Neu7pDE259lQc4/ItuLbTcAkYev8Al8iUnGnIYxDSPbvzvnxt0P/dBWvS0Jnr+c1cPVBypy9ztdHIw3/DwTmziLJhxeyAAAAAElFTkSuQmCC;" vertex="1" parent="DqFi7Z2pWhbsq-brFR4g-54">
          <mxGeometry y="30" width="83.03" height="110" as="geometry" />
        </mxCell>
        <mxCell id="DqFi7Z2pWhbsq-brFR4g-2" value="" style="shape=flexArrow;endArrow=classic;html=1;rounded=0;width=6.19047619047619;endSize=5.495238095238094;endWidth=13.718820861678005;entryX=0;entryY=0.5;entryDx=0;entryDy=0;entryPerimeter=0;" edge="1" parent="DqFi7Z2pWhbsq-brFR4g-54" target="DqFi7Z2pWhbsq-brFR4g-3">
          <mxGeometry width="50" height="50" relative="1" as="geometry">
            <mxPoint x="90" y="84.76" as="sourcePoint" />
            <mxPoint x="140" y="84.81" as="targetPoint" />
          </mxGeometry>
        </mxCell>
        <mxCell id="DqFi7Z2pWhbsq-brFR4g-5" value="" style="group;" vertex="1" connectable="0" parent="DqFi7Z2pWhbsq-brFR4g-54">
          <mxGeometry x="150" y="55" width="170" height="60" as="geometry" />
        </mxCell>
        <mxCell id="DqFi7Z2pWhbsq-brFR4g-3" value="&lt;font face=&quot;Times New Roman&quot;&gt;\(X_t=x_0,x_2,...,x_{17}, &lt;br&gt;x_i \in R^3 \)&lt;br&gt;&lt;br&gt;&lt;/font&gt;" style="text;html=1;align=center;verticalAlign=middle;resizable=0;points=[];autosize=1;strokeColor=none;fillColor=none;" vertex="1" parent="DqFi7Z2pWhbsq-brFR4g-5">
          <mxGeometry x="-5" width="150" height="60" as="geometry" />
        </mxCell>
        <mxCell id="DqFi7Z2pWhbsq-brFR4g-4" value="\( (x,y,z)\)" style="text;html=1;align=center;verticalAlign=middle;resizable=0;points=[];autosize=1;strokeColor=none;fillColor=none;fontFamily=Times New Roman;" vertex="1" parent="DqFi7Z2pWhbsq-brFR4g-5">
          <mxGeometry x="100" y="-15" width="70" height="30" as="geometry" />
        </mxCell>
        <mxCell id="DqFi7Z2pWhbsq-brFR4g-7" value="\(X_t\)" style="text;html=1;align=center;verticalAlign=middle;resizable=0;points=[];autosize=1;strokeColor=none;fillColor=none;fontFamily=Times New Roman;" vertex="1" parent="DqFi7Z2pWhbsq-brFR4g-54">
          <mxGeometry x="11.509999999999998" width="60" height="30" as="geometry" />
        </mxCell>
        <mxCell id="DqFi7Z2pWhbsq-brFR4g-41" value="IF : \(x_i \in P_k&amp;nbsp;\)" style="text;html=1;align=center;verticalAlign=middle;resizable=0;points=[];autosize=1;strokeColor=none;fillColor=none;fontSize=13;fontFamily=Times New Roman;" vertex="1" parent="DqFi7Z2pWhbsq-brFR4g-54">
          <mxGeometry x="120" y="150" width="120" height="30" as="geometry" />
        </mxCell>
        <mxCell id="DqFi7Z2pWhbsq-brFR4g-44" value="" style="group;" vertex="1" connectable="0" parent="DqFi7Z2pWhbsq-brFR4g-54">
          <mxGeometry x="120" y="110" width="200" height="30" as="geometry" />
        </mxCell>
        <mxCell id="DqFi7Z2pWhbsq-brFR4g-42" value="\(P = {P_1,P_2,...,P_K}\)" style="text;html=1;align=center;verticalAlign=middle;resizable=0;points=[];autosize=1;strokeColor=none;fillColor=none;fontSize=13;fontFamily=Times New Roman;" vertex="1" parent="DqFi7Z2pWhbsq-brFR4g-44">
          <mxGeometry width="160" height="30" as="geometry" />
        </mxCell>
        <mxCell id="DqFi7Z2pWhbsq-brFR4g-43" value="K = 5" style="text;html=1;align=center;verticalAlign=middle;resizable=0;points=[];autosize=1;strokeColor=none;fillColor=none;fontSize=13;fontFamily=Times New Roman;" vertex="1" parent="DqFi7Z2pWhbsq-brFR4g-44">
          <mxGeometry x="150" width="50" height="30" as="geometry" />
        </mxCell>
        <mxCell id="DqFi7Z2pWhbsq-brFR4g-47" value="" style="edgeStyle=orthogonalEdgeStyle;rounded=0;orthogonalLoop=1;jettySize=auto;html=1;fontFamily=Times New Roman;fontSize=13;" edge="1" parent="DqFi7Z2pWhbsq-brFR4g-54" source="DqFi7Z2pWhbsq-brFR4g-45">
          <mxGeometry relative="1" as="geometry">
            <mxPoint x="390" y="200" as="targetPoint" />
          </mxGeometry>
        </mxCell>
        <mxCell id="DqFi7Z2pWhbsq-brFR4g-45" value="Then: \(ec_{i} = [0,0,...,1,...,0&lt;br&gt;]\)&amp;nbsp;" style="text;html=1;align=center;verticalAlign=middle;resizable=0;points=[];autosize=1;strokeColor=none;fillColor=none;fontSize=13;fontFamily=Times New Roman;" vertex="1" parent="DqFi7Z2pWhbsq-brFR4g-54">
          <mxGeometry x="140" y="180" width="180" height="40" as="geometry" />
        </mxCell>
        <mxCell id="DqFi7Z2pWhbsq-brFR4g-48" value="\(ec\) is onehot partation matrix for the joints&amp;nbsp;" style="text;html=1;align=center;verticalAlign=middle;resizable=0;points=[];autosize=1;strokeColor=none;fillColor=none;fontSize=13;fontFamily=Times New Roman;" vertex="1" parent="DqFi7Z2pWhbsq-brFR4g-54">
          <mxGeometry x="380" y="185" width="260" height="30" as="geometry" />
        </mxCell>
        <mxCell id="DqFi7Z2pWhbsq-brFR4g-49" value="\( Pa_{i} = \mathbf{W_2}&amp;nbsp; * \sigma(\mathbf{W_1}&lt;br&gt;* ec_t&amp;nbsp; + b_1) + b_2\)" style="text;html=1;align=center;verticalAlign=middle;resizable=0;points=[];autosize=1;strokeColor=none;fillColor=none;fontSize=13;fontFamily=Times New Roman;" vertex="1" parent="DqFi7Z2pWhbsq-brFR4g-54">
          <mxGeometry x="90" y="230" width="300" height="40" as="geometry" />
        </mxCell>
        <mxCell id="DqFi7Z2pWhbsq-brFR4g-50" value="\(W_1\)&amp;nbsp; &amp;nbsp; encode the onehot,&amp;nbsp; \(W_2\) reshape the demension as same as \(X&#39;_i, Pe_i\)" style="text;html=1;align=center;verticalAlign=middle;resizable=0;points=[];autosize=1;strokeColor=none;fillColor=none;fontSize=13;fontFamily=Times New Roman;" vertex="1" parent="DqFi7Z2pWhbsq-brFR4g-54">
          <mxGeometry x="90" y="270" width="470" height="30" as="geometry" />
        </mxCell>
        <mxCell id="DqFi7Z2pWhbsq-brFR4g-51" value="then :&amp;nbsp; \(F_i = Pa_i + X&#39;_i&amp;nbsp; + Pe_i\)" style="text;html=1;align=center;verticalAlign=middle;resizable=0;points=[];autosize=1;strokeColor=#FF0000;fillColor=none;fontSize=13;fontFamily=Times New Roman;strokeWidth=2;" vertex="1" parent="DqFi7Z2pWhbsq-brFR4g-54">
          <mxGeometry x="150" y="320" width="210" height="30" as="geometry" />
        </mxCell>
        <mxCell id="DqFi7Z2pWhbsq-brFR4g-52" value="" style="shape=flexArrow;endArrow=classic;html=1;rounded=0;fontFamily=Times New Roman;fontSize=13;fontColor=#FF0000;width=14.482758620689655;endSize=12.613793103448275;" edge="1" parent="DqFi7Z2pWhbsq-brFR4g-54">
          <mxGeometry width="50" height="50" relative="1" as="geometry">
            <mxPoint x="380" y="334.66" as="sourcePoint" />
            <mxPoint x="450" y="334.66" as="targetPoint" />
            <Array as="points">
              <mxPoint x="400" y="334.66" />
            </Array>
          </mxGeometry>
        </mxCell>
        <mxCell id="DqFi7Z2pWhbsq-brFR4g-53" value="put F into the Spatial Transformer" style="text;html=1;align=center;verticalAlign=middle;resizable=0;points=[];autosize=1;strokeColor=none;fillColor=none;fontSize=13;fontFamily=Times New Roman;fontColor=#FF0000;strokeWidth=2;" vertex="1" parent="DqFi7Z2pWhbsq-brFR4g-54">
          <mxGeometry x="445" y="320" width="200" height="30" as="geometry" />
        </mxCell>
        <mxCell id="DqFi7Z2pWhbsq-brFR4g-88" value="" style="group" vertex="1" connectable="0" parent="1">
          <mxGeometry x="-60" y="470" width="580" height="560" as="geometry" />
        </mxCell>
        <mxCell id="DqFi7Z2pWhbsq-brFR4g-57" value=",&amp;nbsp; &amp;nbsp; \(SF_i[T] \in \mathbb{R}^d, SF_i \in \mathbb{R}^{T\times d}\)" style="text;html=1;align=center;verticalAlign=middle;resizable=0;points=[];autosize=1;strokeColor=none;fillColor=none;fontSize=13;fontFamily=Times New Roman;fontColor=#330000;strokeWidth=2;" vertex="1" parent="DqFi7Z2pWhbsq-brFR4g-88">
          <mxGeometry x="200" y="60" width="380" height="30" as="geometry" />
        </mxCell>
        <mxCell id="DqFi7Z2pWhbsq-brFR4g-72" value="do Temporal Transformer ont SF_l" style="whiteSpace=wrap;html=1;strokeColor=#FF0000;strokeWidth=2;fontFamily=Times New Roman;fontSize=13;fontColor=#330000;fillColor=none;" vertex="1" parent="DqFi7Z2pWhbsq-brFR4g-88">
          <mxGeometry x="40" y="390" width="187" height="35" as="geometry" />
        </mxCell>
        <mxCell id="DqFi7Z2pWhbsq-brFR4g-87" value="" style="group" vertex="1" connectable="0" parent="DqFi7Z2pWhbsq-brFR4g-88">
          <mxGeometry width="500" height="560" as="geometry" />
        </mxCell>
        <mxCell id="DqFi7Z2pWhbsq-brFR4g-55" value="&lt;font color=&quot;#330000&quot;&gt;for joint i,&amp;nbsp; &amp;nbsp;after we the Spatial Transformer :&lt;br&gt;we get it Feature &lt;/font&gt;:&amp;nbsp; \(SF_i\)" style="text;html=1;align=center;verticalAlign=middle;resizable=0;points=[];autosize=1;strokeColor=none;fillColor=none;fontSize=13;fontFamily=Times New Roman;fontColor=#FF0000;strokeWidth=2;" vertex="1" parent="DqFi7Z2pWhbsq-brFR4g-87">
          <mxGeometry x="90" width="260" height="40" as="geometry" />
        </mxCell>
        <mxCell id="DqFi7Z2pWhbsq-brFR4g-86" value="" style="group" vertex="1" connectable="0" parent="DqFi7Z2pWhbsq-brFR4g-87">
          <mxGeometry y="60" width="500" height="500" as="geometry" />
        </mxCell>
        <mxCell id="DqFi7Z2pWhbsq-brFR4g-68" value="\(SF_l = {SF_l[1],&amp;nbsp; SF_l[2], ..., SF_l[T/6]}\)" style="text;html=1;align=center;verticalAlign=middle;resizable=0;points=[];autosize=1;strokeColor=none;fillColor=none;fontSize=13;fontFamily=Times New Roman;fontColor=#330000;strokeWidth=2;" vertex="1" parent="DqFi7Z2pWhbsq-brFR4g-86">
          <mxGeometry y="260" width="250" height="30" as="geometry" />
        </mxCell>
        <mxCell id="DqFi7Z2pWhbsq-brFR4g-85" value="" style="group" vertex="1" connectable="0" parent="DqFi7Z2pWhbsq-brFR4g-86">
          <mxGeometry x="60" width="440" height="500" as="geometry" />
        </mxCell>
        <mxCell id="DqFi7Z2pWhbsq-brFR4g-56" value="\(SF_i = {SF_i[1],&amp;nbsp; SF_i[2], ..., SF_i[T]}\)" style="text;html=1;align=center;verticalAlign=middle;resizable=0;points=[];autosize=1;strokeColor=none;fillColor=none;fontSize=13;fontFamily=Times New Roman;fontColor=#330000;strokeWidth=2;" vertex="1" parent="DqFi7Z2pWhbsq-brFR4g-85">
          <mxGeometry x="23" width="240" height="30" as="geometry" />
        </mxCell>
        <mxCell id="DqFi7Z2pWhbsq-brFR4g-58" value="do Temporal Transformer ont SF_i" style="whiteSpace=wrap;html=1;strokeColor=#FF0000;strokeWidth=2;fontFamily=Times New Roman;fontSize=13;fontColor=#330000;fillColor=none;" vertex="1" parent="DqFi7Z2pWhbsq-brFR4g-85">
          <mxGeometry x="50" y="83" width="187" height="35" as="geometry" />
        </mxCell>
        <mxCell id="DqFi7Z2pWhbsq-brFR4g-59" value="" style="edgeStyle=orthogonalEdgeStyle;rounded=0;orthogonalLoop=1;jettySize=auto;html=1;fontFamily=Times New Roman;fontSize=13;fontColor=#330000;" edge="1" parent="DqFi7Z2pWhbsq-brFR4g-85" source="DqFi7Z2pWhbsq-brFR4g-56" target="DqFi7Z2pWhbsq-brFR4g-58">
          <mxGeometry relative="1" as="geometry" />
        </mxCell>
        <mxCell id="DqFi7Z2pWhbsq-brFR4g-60" value="\(SF_i = {SF_i[1],&amp;nbsp; SF_i[2], ..., SF_i[T]}\)" style="text;html=1;align=center;verticalAlign=middle;resizable=0;points=[];autosize=1;strokeColor=none;fillColor=none;fontSize=13;fontFamily=Times New Roman;fontColor=#330000;strokeWidth=2;" vertex="1" parent="DqFi7Z2pWhbsq-brFR4g-85">
          <mxGeometry x="23" y="150" width="240" height="30" as="geometry" />
        </mxCell>
        <mxCell id="DqFi7Z2pWhbsq-brFR4g-61" value="" style="curved=1;endArrow=classic;html=1;rounded=0;fontFamily=Times New Roman;fontSize=13;fontColor=#330000;exitX=0.204;exitY=1.01;exitDx=0;exitDy=0;exitPerimeter=0;strokeColor=#FF3333;" edge="1" parent="DqFi7Z2pWhbsq-brFR4g-85" source="DqFi7Z2pWhbsq-brFR4g-56">
          <mxGeometry width="50" height="50" relative="1" as="geometry">
            <mxPoint x="460" y="70" as="sourcePoint" />
            <mxPoint x="50" y="150" as="targetPoint" />
            <Array as="points">
              <mxPoint y="80" />
              <mxPoint x="10" y="100" />
              <mxPoint x="10" y="110" />
              <mxPoint x="20" y="110" />
              <mxPoint x="20" y="120" />
            </Array>
          </mxGeometry>
        </mxCell>
        <mxCell id="DqFi7Z2pWhbsq-brFR4g-65" value="split in temporal dimension" style="text;html=1;align=center;verticalAlign=middle;resizable=0;points=[];autosize=1;strokeColor=none;fillColor=none;fontSize=13;fontFamily=Times New Roman;fontColor=#330000;strokeWidth=2;" vertex="1" parent="DqFi7Z2pWhbsq-brFR4g-85">
          <mxGeometry x="50" y="130" width="170" height="30" as="geometry" />
        </mxCell>
        <mxCell id="DqFi7Z2pWhbsq-brFR4g-66" value="" style="endArrow=classic;html=1;rounded=0;fontFamily=Times New Roman;fontSize=13;fontColor=#330000;strokeColor=#FF3333;" edge="1" parent="DqFi7Z2pWhbsq-brFR4g-85">
          <mxGeometry x="0.4286" y="20" width="50" height="50" relative="1" as="geometry">
            <mxPoint x="60" y="180" as="sourcePoint" />
            <mxPoint x="60" y="250" as="targetPoint" />
            <mxPoint as="offset" />
          </mxGeometry>
        </mxCell>
        <mxCell id="DqFi7Z2pWhbsq-brFR4g-67" value="" style="endArrow=classic;html=1;rounded=0;fontFamily=Times New Roman;fontSize=13;fontColor=#330000;exitX=0.735;exitY=1;exitDx=0;exitDy=0;exitPerimeter=0;strokeColor=#FF3333;" edge="1" parent="DqFi7Z2pWhbsq-brFR4g-85">
          <mxGeometry width="50" height="50" relative="1" as="geometry">
            <mxPoint x="211.9000000000001" y="180" as="sourcePoint" />
            <mxPoint x="280" y="250" as="targetPoint" />
          </mxGeometry>
        </mxCell>
        <mxCell id="DqFi7Z2pWhbsq-brFR4g-69" value="\(SF_f = {SF_f[1],&amp;nbsp; SF_f[2], ..., SF_f[T/2]}\)" style="text;html=1;align=center;verticalAlign=middle;resizable=0;points=[];autosize=1;strokeColor=none;fillColor=none;fontSize=13;fontFamily=Times New Roman;fontColor=#330000;strokeWidth=2;" vertex="1" parent="DqFi7Z2pWhbsq-brFR4g-85">
          <mxGeometry x="180" y="260" width="260" height="30" as="geometry" />
        </mxCell>
        <mxCell id="DqFi7Z2pWhbsq-brFR4g-70" value="slow" style="text;html=1;align=center;verticalAlign=middle;resizable=0;points=[];autosize=1;strokeColor=none;fillColor=none;fontSize=13;fontFamily=Times New Roman;fontColor=#330000;strokeWidth=2;" vertex="1" parent="DqFi7Z2pWhbsq-brFR4g-85">
          <mxGeometry x="55" y="200" width="50" height="30" as="geometry" />
        </mxCell>
        <mxCell id="DqFi7Z2pWhbsq-brFR4g-71" value="fast" style="text;html=1;align=center;verticalAlign=middle;resizable=0;points=[];autosize=1;strokeColor=none;fillColor=none;fontSize=13;fontFamily=Times New Roman;fontColor=#330000;strokeWidth=2;" vertex="1" parent="DqFi7Z2pWhbsq-brFR4g-85">
          <mxGeometry x="250" y="200" width="40" height="30" as="geometry" />
        </mxCell>
        <mxCell id="DqFi7Z2pWhbsq-brFR4g-74" value="&lt;font style=&quot;font-size: 20px;&quot;&gt;\(\times\)&lt;/font&gt;" style="text;html=1;align=center;verticalAlign=middle;resizable=0;points=[];autosize=1;strokeColor=none;fillColor=none;fontSize=13;fontFamily=Times New Roman;fontColor=#FF3333;strokeWidth=2;" vertex="1" parent="DqFi7Z2pWhbsq-brFR4g-85">
          <mxGeometry x="93.5" y="30" width="100" height="40" as="geometry" />
        </mxCell>
        <mxCell id="DqFi7Z2pWhbsq-brFR4g-75" value="do Temporal Transformer ont SF_f" style="whiteSpace=wrap;html=1;strokeColor=#FF0000;strokeWidth=2;fontFamily=Times New Roman;fontSize=13;fontColor=#330000;fillColor=none;" vertex="1" parent="DqFi7Z2pWhbsq-brFR4g-85">
          <mxGeometry x="220" y="330" width="190" height="35" as="geometry" />
        </mxCell>
        <mxCell id="DqFi7Z2pWhbsq-brFR4g-76" value="" style="endArrow=classic;html=1;rounded=0;strokeColor=#FF3333;fontFamily=Times New Roman;fontSize=20;fontColor=#FF3333;exitX=0.473;exitY=1.056;exitDx=0;exitDy=0;exitPerimeter=0;" edge="1" parent="DqFi7Z2pWhbsq-brFR4g-85" source="DqFi7Z2pWhbsq-brFR4g-68">
          <mxGeometry width="50" height="50" relative="1" as="geometry">
            <mxPoint x="-50" y="270" as="sourcePoint" />
            <mxPoint x="60" y="320" as="targetPoint" />
          </mxGeometry>
        </mxCell>
        <mxCell id="DqFi7Z2pWhbsq-brFR4g-78" value="" style="endArrow=classic;html=1;rounded=0;strokeColor=#FF3333;fontFamily=Times New Roman;fontSize=20;fontColor=#FF3333;exitX=0.47;exitY=0.987;exitDx=0;exitDy=0;exitPerimeter=0;" edge="1" parent="DqFi7Z2pWhbsq-brFR4g-85" source="DqFi7Z2pWhbsq-brFR4g-69">
          <mxGeometry width="50" height="50" relative="1" as="geometry">
            <mxPoint x="-390" y="330" as="sourcePoint" />
            <mxPoint x="302" y="320" as="targetPoint" />
          </mxGeometry>
        </mxCell>
        <mxCell id="DqFi7Z2pWhbsq-brFR4g-79" value="" style="endArrow=classic;html=1;rounded=0;entryX=0;entryY=0.25;entryDx=0;entryDy=0;" edge="1" parent="DqFi7Z2pWhbsq-brFR4g-85" target="DqFi7Z2pWhbsq-brFR4g-75">
          <mxGeometry width="50" height="50" relative="1" as="geometry">
            <mxPoint x="167" y="340" as="sourcePoint" />
            <mxPoint x="217" y="290" as="targetPoint" />
          </mxGeometry>
        </mxCell>
        <mxCell id="DqFi7Z2pWhbsq-brFR4g-80" value="" style="endArrow=classic;html=1;rounded=0;exitX=0;exitY=0.75;exitDx=0;exitDy=0;" edge="1" parent="DqFi7Z2pWhbsq-brFR4g-85" source="DqFi7Z2pWhbsq-brFR4g-75">
          <mxGeometry width="50" height="50" relative="1" as="geometry">
            <mxPoint x="-220" y="410" as="sourcePoint" />
            <mxPoint x="170" y="356" as="targetPoint" />
          </mxGeometry>
        </mxCell>
        <mxCell id="DqFi7Z2pWhbsq-brFR4g-81" value="" style="shape=flexArrow;endArrow=classic;html=1;rounded=0;" edge="1" parent="DqFi7Z2pWhbsq-brFR4g-85">
          <mxGeometry width="50" height="50" relative="1" as="geometry">
            <mxPoint x="190" y="380" as="sourcePoint" />
            <mxPoint x="190" y="460" as="targetPoint" />
          </mxGeometry>
        </mxCell>
        <mxCell id="DqFi7Z2pWhbsq-brFR4g-82" value="Fusion" style="text;html=1;align=center;verticalAlign=middle;resizable=0;points=[];autosize=1;strokeColor=none;fillColor=none;" vertex="1" parent="DqFi7Z2pWhbsq-brFR4g-85">
          <mxGeometry x="200" y="405" width="60" height="30" as="geometry" />
        </mxCell>
        <mxCell id="DqFi7Z2pWhbsq-brFR4g-83" value="Next Layer" style="text;html=1;align=center;verticalAlign=middle;resizable=0;points=[];autosize=1;strokeColor=none;fillColor=none;" vertex="1" parent="DqFi7Z2pWhbsq-brFR4g-85">
          <mxGeometry x="145" y="470" width="80" height="30" as="geometry" />
        </mxCell>
      </root>
    </mxGraphModel>
  </diagram>
</mxfile>
